<svg id="Layer_1" data-name="Layer 1" xmlns="http://www.w3.org/2000/svg" viewBox="0 0 72 71.68"><defs><style>.cls-1,.cls-2{opacity:0.01;}.cls-2{fill:#fff;}</style></defs><title>ancient-symbols-set</title><path class="cls-1" d="M980.64,576,979,573.56c-.33.66-.6,1.25-.93,1.81-.09.17-.33.26-.5.39a2.06,2.06,0,0,1-.26-.54c-.15-.82-.25-1.65-.4-2.48a.6.6,0,0,0-.36-.37c-.85-.18-1.72-.31-2.57-.49a1.75,1.75,0,0,1-.54-.34,2,2,0,0,1,.48-.4c.69-.24,1.4-.45,2.24-.72-.78-.47-1.44-.86-2.09-1.28-.16-.1-.24-.32-.36-.48.16-.12.32-.31.49-.34,1-.14,2-.25,3-.34.41,0,.64-.14.68-.57.06-.8.15-1.59.26-2.38,0-.18.2-.33.3-.5.16.13.38.22.46.39.25.52.45,1.06.71,1.72.37-.52.67-1,1-1.39a1.81,1.81,0,0,1,.5-.33,2.48,2.48,0,0,1,.27.54c.16.9.29,1.81.46,2.71a.52.52,0,0,0,.34.32c.88.2,1.76.36,2.63.56.18,0,.32.22.48.33-.12.14-.21.34-.36.41-.42.17-.86.29-1.46.49.77.4,1.41.7,2,1.05a2.06,2.06,0,0,1,.46.47c-.2.11-.4.31-.61.32-1.43.09-2.87.14-4.39.21,0,1,.11,2,.14,3a2.65,2.65,0,0,1-.13.67Zm-2.79-2.12.13,0c.21-.39.39-.79.63-1.15a.7.7,0,0,1,.43-.33c.11,0,.26.2.36.34.27.42.52.84.79,1.26l.15-.06c0-.56-.05-1.12-.12-1.67s0-.74.63-.74h3l0-.2c-.25-.15-.51-.29-.75-.46s-.61-.46-.92-.7l.88-.7a9.45,9.45,0,0,0-1.32-.32c-.46,0-.59-.27-.65-.69-.1-.66-.25-1.32-.4-2.13-.32.46-.54.81-.79,1.14-.11.14-.3.33-.43.31s-.29-.24-.38-.4a8.33,8.33,0,0,1-.39-.88c-.08.54-.12.9-.18,1.25-.1.65-.39.87-1,.91s-1.51.12-2.27.19l0,.18c.56.3,1.13.58,1.67.9a4.9,4.9,0,0,1,.57.45,4,4,0,0,1-.63.47,12.81,12.81,0,0,1-1.23.5c.57.13,1,.24,1.38.32a.6.6,0,0,1,.56.59C977.63,572.81,977.76,573.33,977.85,573.86Z" transform="translate(-924 -504.32)"/><path class="cls-1" d="M996,567.46a1.86,1.86,0,0,1-.63-.05c-.51-.26-1-.57-1.5-.86a.57.57,0,0,0-.83.16c-.26.32-.54.63-.81.94a4.11,4.11,0,0,1,0,5.05l1.28,1.33c.58-.55,1.06-1,1.59-1.5.14-.12.39-.1.59-.15a1.72,1.72,0,0,1-.22.59c-.39.43-.83.81-1.25,1.21a.89.89,0,0,1-1.52-.08c-.29-.34-.56-.69-.85-1l-.12.08c.16.51.36,1,.48,1.52,0,.18-.09.4-.15.61a2.55,2.55,0,0,1-.41-.46,2.48,2.48,0,0,1-.23-.68c-.14-.61-.43-1-1.22-.86-.13.35-.29.77-.43,1.2s-.29.45-.58.27a17.15,17.15,0,0,1-1.44-1c-.11-.09-.09-.34-.13-.51a1.32,1.32,0,0,1,.5.07c.37.22.72.49,1.1.76.32-.71.53-1.25,0-2a4.36,4.36,0,0,1-.61-3.78.73.73,0,0,0-.34-.91l-1.4-.85c-.31.69-.56,1.29-.85,1.87-.09.17-.3.28-.46.42,0-.2-.16-.42-.1-.57a22.6,22.6,0,0,1,.89-2.09c.06-.11.39-.18.56-.14a4.14,4.14,0,0,1,2.29,1.44.18.18,0,0,0,.1,0c.84-.59.85-.62.36-1.53-.12-.21-.28-.4-.38-.61a1.8,1.8,0,0,1,0-.52c.18.06.44.06.53.19a5.19,5.19,0,0,1,.67,1.19c.15.46.31.83.86.86a1.73,1.73,0,0,1,.47.18c.29-.36.58-.73.89-1.09a.89.89,0,0,1,1.22-.27l2.13,1.2Zm-6.94,2.12a3.72,3.72,0,0,0,1.13,2.79.92.92,0,0,0,1.46,0,3.25,3.25,0,0,0,0-4.4,1.31,1.31,0,0,0-2,0A1.89,1.89,0,0,0,989.06,569.58Z" transform="translate(-924 -504.32)"/><path class="cls-1" d="M924,547.31a1,1,0,0,0,.1-.21c.38-2,1.84-2.89,3.89-3.24a1.57,1.57,0,0,1,.93.15,21.37,21.37,0,0,1,2.78,1.53,4.76,4.76,0,0,1,2.16,3.76,3,3,0,0,1-2.46,3.28,7.86,7.86,0,0,1-4.43-.2,4.14,4.14,0,0,1-2.84-3.07c0-.11-.09-.21-.13-.32Zm5.44,4.88a24.08,24.08,0,0,0,2.67-.82,1.84,1.84,0,0,0,1.09-1.91c-.09-2.15-2.88-4.82-5.06-4.86a3.64,3.64,0,0,0-3.19,2.17,4.37,4.37,0,0,0,.94,4.28,2.24,2.24,0,0,0,.78.44C927.55,551.74,928.44,551.94,929.44,552.19Z" transform="translate(-924 -504.32)"/><path class="cls-1" d="M924,558.58l1.17-2.28c.14-.27.31-.49.65-.27l3.26,2.09c.58-.58,1.18-1.11,1.68-1.71a.63.63,0,0,1,1-.15,7.27,7.27,0,0,1,2.43,2.44c.07.12.19.24.19.37a4.23,4.23,0,0,1-.12.68c-.18-.12-.43-.19-.52-.35a6.59,6.59,0,0,0-2.4-2.52c-.6.63-1.2,1.24-1.78,1.87-.21.23-.36.38-.69.16-1-.68-2.07-1.33-3.19-2-.3.63-.61,1.19-.83,1.78s-.4.6-.85.42Z" transform="translate(-924 -504.32)"/><path class="cls-1" d="M975.62,537.18a11.3,11.3,0,0,0-1.14-.65c-.12-.06-.38.05-.5.16-.36.34-.66.76-1,1.08-.15.12-.44.08-.66.12a2,2,0,0,1,.21-.58c.32-.39.67-.74,1.07-1.17l-1.21-1.31-.62.58c-.83.75-1.68,1.47-2.48,2.25-.31.3-.51.35-.84,0-.57-.55-1.2-1.05-1.78-1.6-.12-.12-.14-.35-.22-.53.21,0,.47-.07.61,0,.45.29.86.65,1.34,1a1.39,1.39,0,0,0-.4-1.44c-.56-.45-1.1-.94-1.61-1.44-.13-.12-.14-.35-.2-.54.2,0,.46,0,.6.06.51.37,1,.81,1.51,1.26.11-.78.14-1.4-.64-1.81a16.85,16.85,0,0,1-1.91-1.24,2.05,2.05,0,0,1-.4-.54c.24,0,.54-.11.72,0,.77.43,1.49.92,2.23,1.38.32-.88.24-1.13-.54-1.62-.5-.3-1-.57-1.49-.9-.17-.11-.4-.43-.35-.54.17-.39.46-.14.7,0l.93.55c.29.17.58.34.94.57a12.77,12.77,0,0,1,.14-1.35c0-.18.26-.32.4-.48a1.56,1.56,0,0,1,.24.53,7.79,7.79,0,0,1-.07,1.07c.75-.34,1.46-.69,2.2-1,.17-.07.41.06.62.09-.12.17-.21.4-.37.48-.58.32-1.2.56-1.78.87a1.33,1.33,0,0,0-.75,1.62l1.39-1.12a9.08,9.08,0,0,1,1-.76c.14-.09.38,0,.57,0-.06.16-.07.38-.18.47a21.86,21.86,0,0,1-2.21,1.76c-.73.47-.72,1.08-.63,1.82.63-.55,1.21-1.08,1.83-1.57.16-.13.56-.22.65-.13.29.3,0,.46-.25.65-.54.47-1,1-1.6,1.44a1.55,1.55,0,0,0-.48,1.92c.41-.36.81-.73,1.22-1.08.56-.48,1.13-1,1.73-1.4a.56.56,0,0,1,.51.08c.47.4.91.84,1.37,1.28l1.68-2.06a11.7,11.7,0,0,1-1.1-1c-.15-.16-.14-.45-.21-.69a2.1,2.1,0,0,1,.64.22c.39.28.73.61,1.13,1l.54-.55c-.38-.46-.76-.87-1.08-1.32-.1-.14-.05-.38-.07-.57.19,0,.44,0,.55.15a14.4,14.4,0,0,1,1,1.22l1-1c-.49-.4-1-.77-1.41-1.18-.13-.12-.1-.4-.14-.61.2.05.46,0,.6.16,1.42,1.35,2.4,1.24,3.47-.41,0,0,0-.12.1-.15s.34-.16.51-.24c0,.19.12.43,0,.58a3.62,3.62,0,0,1-1.92,1.76l1.32,1.18c.41-.49.77-1,1.18-1.38.11-.12.37-.09.56-.13a1.83,1.83,0,0,1-.12.6c-.32.45-.69.86-1.07,1.32l.54.4c.44-.4.85-.78,1.28-1.13a1.27,1.27,0,0,1,.5-.14c0,.19.07.46,0,.56-.34.37-.73.68-1.24,1.13.82.38,1.46.69,2.12,1,.12,0,.35-.1.49-.21.39-.31.74-.67,1.14-1,.11-.08.34,0,.51,0,0,.17,0,.4-.15.51-.5.49-1,1-1.63,1.48.56.52,1,1,1.51,1.42a1.68,1.68,0,0,1,.21.53c-.2,0-.46.09-.58,0-.53-.44-1-.93-1.58-1.44l-1.1,1.36c.48.26.93.47,1.34.74.14.1.19.33.28.5-.19,0-.41.14-.56.07-.49-.21-1-.49-1.48-.77l-.78,1c.34.3.68.56,1,.88a1.91,1.91,0,0,1,.24.58,1.73,1.73,0,0,1-.66-.1,9.28,9.28,0,0,1-1-.81l-1,1.34a12.87,12.87,0,0,1,1.06,1c.11.13,0,.4.07.6a1.48,1.48,0,0,1-.54-.16c-1.56-1.37-.84-1.19-2.67-.28l-.1.07c-.24.12-.47.54-.75.16s.15-.55.39-.71.8-.45,1.26-.71l-1.85-1.57c-.35.43-.66.85-1,1.22-.11.11-.35.1-.53.15,0-.17,0-.39,0-.52.3-.44.65-.86,1-1.32l-.73-.63c-.3.44-.57.87-.88,1.26a2.25,2.25,0,0,1-.49.37c0-.21-.14-.47-.06-.63A16.29,16.29,0,0,1,975.62,537.18Zm-.9-1.52,5.27,4.27,4-5.13a16.32,16.32,0,0,1-5.29-3.63Z" transform="translate(-924 -504.32)"/><path class="cls-1" d="M979.32,549.09c-.08.27-.08.6-.25.79-1.21,1.44-2.45,2.85-3.67,4.28-.1.11-.2.23-.39.47h4.86a5,5,0,0,1-.35-.48,9.49,9.49,0,0,1-.85-1.76,1.69,1.69,0,0,1,1.25-2.09,2.45,2.45,0,0,1,2.41.69,2,2,0,0,1-.05,2.3c-.21.36-.49.67-.8,1.1h4.88c-.34-.36-.63-.7-1-1-1-.91-2-1.81-2.95-2.73-.2-.18-.59-.38-.24-.7.09-.08.51.06.67.21,1.34,1.26,2.66,2.54,4,3.82a1.65,1.65,0,0,1,.34.41c.09.16.21.4.15.51a.65.65,0,0,1-.51.21l-5.15,0h-.54v.21a4.67,4.67,0,0,0,.52.08c1.6.07,3.2.13,4.79.21a2.89,2.89,0,0,1,.69.21,2.83,2.83,0,0,1-.31.6c-1.51,1.68-3,3.36-4.56,5-.12.13-.38.13-.58.19,0-.21.06-.42.1-.63,0-.05.07-.09.11-.13l3.8-4.24.29-.33-4.84-.22a3.65,3.65,0,0,1,.29.44,11.72,11.72,0,0,1,.88,1.82,1.63,1.63,0,0,1-.76,1.91A2.39,2.39,0,0,1,979,560a1.62,1.62,0,0,1-.58-1.92,3.82,3.82,0,0,1,.44-.91c.18-.28.42-.53.73-.92h-4.85c.12.14.25.33.41.49l3.19,3.08a1.64,1.64,0,0,1,.36.39,1.49,1.49,0,0,1,0,.52c-.18,0-.4,0-.51-.08-.58-.52-1.15-1.06-1.7-1.62-.86-.88-1.73-1.76-2.57-2.67a2.75,2.75,0,0,1-.31-.72,2.38,2.38,0,0,1,.72-.18c1.7,0,3.4.09,5.1.14h.38l0-.16a3.89,3.89,0,0,0-.56-.1l-4.8-.12a2.17,2.17,0,0,1-.63-.19,2.38,2.38,0,0,1,.25-.56c1.47-1.7,2.94-3.38,4.43-5,.17-.19.49-.23.73-.34Zm1.15,5.34c.49-.55.85-.9,1.14-1.3a1.34,1.34,0,0,0,.21-1.66,1.54,1.54,0,0,0-1.66-.54.84.84,0,0,0-.77,1.16C979.66,552.85,980.06,553.55,980.47,554.43Zm.11,1.86c-.5.55-.88.9-1.19,1.31a1.32,1.32,0,0,0-.26,1.55,1.51,1.51,0,0,0,1.56.66c.76-.07,1.13-.47.91-1.2A20.68,20.68,0,0,0,980.58,556.29Z" transform="translate(-924 -504.32)"/><path class="cls-1" d="M958.23,519c0-.67,0-1.34,0-2,0-.12-.21-.25-.34-.34a1.17,1.17,0,0,1-.66-1.39,1.44,1.44,0,0,1,1.44-1,1.47,1.47,0,0,1,1.46,1,1.29,1.29,0,0,1-.74,1.38.83.83,0,0,0-.34.56,12.71,12.71,0,0,0,0,1.38,2.32,2.32,0,0,0,0,.27,3.35,3.35,0,0,0,1.69-1.69c.13-.25.15-.77.6-.56s.11.59,0,.87a3.88,3.88,0,0,1-1.66,1.83c-.67.37-.67.37-.59,1.17a3.84,3.84,0,0,1,2.88,2.34c0,.09.12.19.1.28a3.12,3.12,0,0,1-.14.5c-.16-.08-.37-.12-.46-.25a9.46,9.46,0,0,0-.92-1.38,7.86,7.86,0,0,0-1.43-.92c0,.92,0,1.64,0,2.35,0,.13.17.29.3.36.7.38,1,.84.83,1.42a1.42,1.42,0,0,1-1.41,1,1.45,1.45,0,0,1-1.49-1,1.09,1.09,0,0,1,.58-1.31.64.64,0,0,0,.39-.75c0-.62,0-1.24,0-1.86a1.47,1.47,0,0,0-1.53,1.71c0,.42.11.81-.58.55-.19-.08-.5.21-.76.23-1,.06-2.07.1-3.11.13-.84,0-1.68,0-2.58,0v5.55h4.13V525.7H951l-.15,2.5,1.93.08.07-1.36-1,0a1.75,1.75,0,0,1-.06.45,2,2,0,0,1-.28.44c-.1-.15-.26-.3-.28-.47-.13-.84.08-1.08.92-1,1.47.07,1.26,0,1.28,1.3,0,1.44,0,1.45-1.43,1.42-.46,0-.92,0-1.38-.06a.48.48,0,0,1-.5-.59c.05-1,.09-1.92.13-2.88,0-.31.12-.47.47-.47,1,0,2.07,0,3.11,0,.51,0,.75.21.74.77,0,1.16,0,2.32,0,3.48a.76.76,0,0,1-.8.89c-1.44.07-2.88.12-4.31.17-.33,0-.53-.13-.53-.5,0-2,0-3.91,0-5.87,0-.79.11-.85.89-.85,1.54,0,3.08,0,4.62,0,.55,0,1.11.07,1.66.11a2.38,2.38,0,0,1,2.17-2.7v-.73c-.22,0-.43-.09-.64-.11a2.25,2.25,0,0,1-2-2.58c0-.18.25-.34.38-.51.1.18.29.37.28.54C956.16,518.25,956.82,519,958.23,519Zm.42-2.63a.82.82,0,1,0,0-1.63.83.83,0,1,0,0,1.63Zm1.12,8.59a.86.86,0,0,0-.93-.8.89.89,0,0,0-1,.83.91.91,0,0,0,1,.78A.88.88,0,0,0,959.77,524.93Z" transform="translate(-924 -504.32)"/><path class="cls-1" d="M935.26,569.8c0-.18.07-.39,0-.54-.16-.31-.41-.59-.57-.9-.07-.14,0-.35,0-.52.18,0,.43,0,.53.07A11.13,11.13,0,0,1,936,569c.1-.15.16-.29.26-.41.47-.61.56-.6,1.06,0l.66.77a11.34,11.34,0,0,1,.74-1.08c.12-.13.39-.14.59-.2a1.89,1.89,0,0,1,0,.63,4.4,4.4,0,0,1-.48.76c-.26.37-.23.66.27.86a7.56,7.56,0,0,1,.65-1c.1-.12.35-.14.54-.2,0,.19.13.42.06.57a10.93,10.93,0,0,1-.69,1.15l1.55,1.11,1.7-1.42a10.17,10.17,0,0,1-1.11-.67c-.14-.11-.17-.37-.25-.57.19,0,.41-.13.56-.07.39.17.72.44,1.1.62a1.49,1.49,0,0,0,.56,0l.05-.19a6.5,6.5,0,0,1-.71-.78c-.11-.16-.07-.41-.09-.61.19,0,.43,0,.56.08a7.57,7.57,0,0,1,.76.74c.89-.78.89-.78,2.06.17a7.14,7.14,0,0,1,.88-.77c.15-.1.41,0,.62,0a1.56,1.56,0,0,1-.17.59,6,6,0,0,1-.76.74l.73.6c.26-.28.48-.54.72-.77s.45-.46.69-.14c.09.12,0,.46-.17.64a5.65,5.65,0,0,1-.64.73c.64.41,1.26.76,1.84,1.17.18.13.39.48.33.63-.16.39-.48.15-.69,0-1.53-1-3-2.12-4.55-3.19-1.07.94-2.26,1.93-3.4,3a.75.75,0,0,1-1.18,0c-1.31-1.07-2.63-2.12-4-3.22a12.27,12.27,0,0,1-3.33,2.8c-1.15.67-1.15.68-1.93-.39l-2.12-2.93c-.82,1-1.67,1.93-2.5,2.91-.1.12-.15.32-.28.39a1.72,1.72,0,0,1-.52.1c0-.18-.12-.39,0-.51.22-.4.51-.77.79-1.19a3.84,3.84,0,0,1-.78-.41c-.12-.09-.13-.32-.19-.49.17-.05.35-.17.51-.14s.43.23.65.28a3.08,3.08,0,0,0,.79-.08c-.53-.48-.93-.81-1.28-1.18-.1-.12,0-.38-.06-.58.21,0,.42.07.62.12s.1.12.16.17c.77.81,1,.81,1.76.09l.36-.32c.34-.27.57-.2.73.2s.38.83.64,1.38c.26-.6.43-1.08.67-1.52.09-.15.33-.22.51-.33,0,.2.19.44.14.61-.18.55-.45,1.07-.65,1.61a1.91,1.91,0,0,0,0,.54l.17.05c.34-.39.67-.77,1-1.15.19-.22.45-.45.68-.14.09.12,0,.47-.16.64-.33.45-.71.86-1.08,1.29l.5.69,2.16-1.38a10.69,10.69,0,0,1-.76-.84c-.09-.14,0-.38-.06-.57.19,0,.44,0,.56.07a6.86,6.86,0,0,1,.71.81Z" transform="translate(-924 -504.32)"/><path class="cls-1" d="M958.16,541.45c.87.58.92,1.67,1.37,2.54l1.48-2.28.25.13c.2.95-.58,1.57-.91,2.39l.39.17,1.43-2.21.26.12c.23.94-.59,1.54-.88,2.38l.43.21,1.39-2.12c.47.46.47.46-.61,2.4l.37.21c.37-.58.72-1.14,1.1-1.67.08-.12.27-.17.42-.25,0,.18.16.4.1.53-.3.63-.67,1.22-1,1.85a1,1,0,0,0-.06.61c.14.46.36.89.51,1.34a3.22,3.22,0,0,1,.07.7c-1-.28-.94-1.17-1.35-1.78l-.61.51.81,2.27-.25.11c-.9-.25-.82-1.21-1.24-1.88l-.59.33c.23.78.79,1.45.67,2.4-1-.4-1-1.34-1.36-2.05l-.55.17.77,2.25-.28.12c-.92-.44-.88-1.51-1.3-2.3a6.11,6.11,0,0,1-1.55,2.26c-.36-1.07.47-1.63.79-2.41l-.47-.18a6.94,6.94,0,0,1-1.53,2.24c-.36-1.13.5-1.69.84-2.5l-.87-.44c-.49.68-.68,1.55-1.51,2.08-.34-1.11.55-1.68.84-2.46l-.86-.66-1.22,1.85-.23-.08a4.62,4.62,0,0,1-.06-.64,1,1,0,0,1,.15-.39c.3-.51.82-1,.86-1.54s-.42-1.09-.63-1.64a2.16,2.16,0,0,1-.12-.89c1,.29.94,1.27,1.41,2l.86-.35-.84-2.41.28-.14c.87.44.84,1.47,1.34,2.24l.83-.24c-.18-.44-.37-.83-.5-1.24a3.64,3.64,0,0,1-.2-1.25c1,.44,1,1.45,1.45,2.25l.59-.11-.79-2.41Zm4.36,4.4a2.09,2.09,0,0,0-.17-.14c-1.9-1-3.84-1.7-5.93-.52a5.21,5.21,0,0,1-.5.2c-.76.31-.85.68-.18,1.16a10.63,10.63,0,0,0,2.18,1.23A4,4,0,0,0,962.52,545.85Z" transform="translate(-924 -504.32)"/><path class="cls-1" d="M943.75,511.94l-1.54,1.69c.37.32.76.63,1.1,1,.11.12.11.35.16.53-.17,0-.4,0-.52,0-.4-.29-.77-.63-1.2-1l-.64.69c.44.3.85.56,1.24.86a1.51,1.51,0,0,1,.28.44c-.19,0-.42.18-.55.11-.47-.25-.9-.58-1.36-.88,0,0,0,0,0,0-.93,1.13-.93,1.13.12,2.14a1.51,1.51,0,0,1,.4.44,1.79,1.79,0,0,1,0,.57,1.24,1.24,0,0,1-.49-.17c-.37-.33-.7-.7-1.12-1.12-.45.42-.85.82-1.29,1.19a1.84,1.84,0,0,1-.54.21c0-.21,0-.46.09-.61.31-.46.69-.88,1.05-1.34l-1.74-1.51a13.06,13.06,0,0,1-1,1,2,2,0,0,1-.64.21,2.33,2.33,0,0,1,.21-.63c.28-.36.6-.69.95-1.07l-.55-.47a13.07,13.07,0,0,1-1.16.88,1.68,1.68,0,0,1-.65.1,1.61,1.61,0,0,1,.26-.56,12,12,0,0,1,1.06-.85l-.93-.88c-.35.39-.74.85-1.16,1.26-.09.09-.33,0-.51,0,0-.17,0-.4.11-.5,1.39-1.51,1.33-2.23-.29-3.42-.15-.1-.2-.33-.29-.5.2,0,.49-.1.61,0,.59.51,1.13,1.08,1.74,1.68l.61-.68c.12-.13.23-.27.34-.4a15.89,15.89,0,0,1-1.2-1.09c-.12-.13-.08-.4-.11-.6a1.55,1.55,0,0,1,.54.17c.4.31.78.67,1.18,1l.48-.56c-.38-.4-.76-.77-1.1-1.18-.1-.11-.06-.33-.08-.5.17,0,.4,0,.52.09.35.29.66.62,1.08,1,.31-.61.62-1.19.89-1.8,0-.11-.07-.32-.16-.45-.26-.35-.58-.66-.82-1-.1-.15-.06-.38-.08-.58.19.08.44.1.57.24.44.45.84.94,1.37,1.56.46-.52.85-1,1.27-1.4.13-.13.37-.15.56-.22,0,.21,0,.48-.11.62-.39.47-.84.9-1.3,1.38l1.2,1.06c.25-.4.45-.79.7-1.13a1.93,1.93,0,0,1,.52-.36,1.47,1.47,0,0,1,0,.66,13.72,13.72,0,0,1-.71,1.24l.9.77a8.22,8.22,0,0,1,.82-.84,1.78,1.78,0,0,1,.62-.24,2.29,2.29,0,0,1-.18.66,9.22,9.22,0,0,1-.75.83l1.16,1c.37-.32.68-.65,1-.91.13-.1.38,0,.57-.07-.06.18-.07.41-.18.53-1.31,1.4-1.12.76-.35,2.47.12.27.64.57.18.84s-.56-.3-.73-.57S943.94,512.31,943.75,511.94Zm-.32-.67-4.71-4a15.27,15.27,0,0,1-3.61,4.87l4.12,3.93Z" transform="translate(-924 -504.32)"/><path class="cls-1" d="M935,555.87l.18,2.72a3.81,3.81,0,0,1,.78-.09c.14,0,.26.14.4.22-.09.14-.15.35-.28.39a2.28,2.28,0,0,1-.93.16.63.63,0,0,1-.4-.44c-.07-1.66-.14-3.31-.14-5a20.48,20.48,0,0,1,.22-2.2c0-.37.19-.55.59-.43a5.1,5.1,0,0,1,.7.16c.14.07.23.26.34.4a1.31,1.31,0,0,1-.45.21,3.16,3.16,0,0,1-.73-.11L935,554.6a3.45,3.45,0,0,0,2.08-1.08c.12-.13.23-.27.35-.41.95-1.2,1.56-1.19,2.48,0,.23.3.44.61.75,1.06V552l-.57-.41c.17-.15.32-.39.52-.43a2.75,2.75,0,0,1,1,0c.18,0,.31.28.46.43l-.62.44v2.09c.34-.43.63-.82,1-1.19.78-.89,1.43-.87,2.13.1a3.9,3.9,0,0,0,2.51,1.76l-.14-2.7a5.27,5.27,0,0,1-.8.1c-.14,0-.27-.15-.4-.23.09-.14.15-.35.27-.4a2.2,2.2,0,0,1,.94-.14.67.67,0,0,1,.41.49,24.9,24.9,0,0,1,0,6.1c0,.12,0,.23,0,.35-.13,1.27-.18,1.31-1.37.93-.14,0-.22-.27-.33-.4a1.23,1.23,0,0,1,.45-.21,3.23,3.23,0,0,1,.73.11l.27-2.72a3.58,3.58,0,0,0-2.31,1.35c-1.16,1.42-1.69,1.4-2.77-.1l-.54-.76v2.1l.54.47c-.19.15-.36.38-.56.42a2.26,2.26,0,0,1-1,0c-.18,0-.3-.29-.44-.45l.58-.41v-2c-.32.4-.56.74-.83,1.06-.86,1-1.49,1-2.26-.08a4,4,0,0,0-1.91-1.57C935.43,556,935.27,555.94,935,555.87Zm.47-.62a4.28,4.28,0,0,1,2.25,1.82c.53.77,1,.79,1.65.11a8.2,8.2,0,0,0,1.08-1.35,1,1,0,0,0,.06-.88,10.89,10.89,0,0,0-1.32-1.7.73.73,0,0,0-1.27.07A4.71,4.71,0,0,1,935.48,555.25Zm11.11.18a4.3,4.3,0,0,1-2.24-1.86c-.49-.67-.93-.73-1.49-.18a9.16,9.16,0,0,0-1.27,1.58,1,1,0,0,0,0,.88,8,8,0,0,0,1.11,1.47c.55.6,1,.59,1.49,0A4.51,4.51,0,0,1,946.59,555.43Z" transform="translate(-924 -504.32)"/><path class="cls-1" d="M964.57,564.45v-.72l2.72-.59a4.74,4.74,0,0,0-1.54-2.66l.62-.64,2.38,1.66a4.55,4.55,0,0,0,.86-2.34,2,2,0,0,1,.28-.55,3.12,3.12,0,0,1,.3.53c.17.57.29,1.15.46,1.73s.44.64.89.39l1.93-1.12c.21.1.27.24,0,.57a19,19,0,0,0-1,1.78c-.18.34,0,.58.31.68.74.2,1.49.38,2.33.59v.73c-.76.17-1.48.31-2.19.48-.43.11-.59.39-.34.8.4.68.83,1.34,1.29,2.1l-.53.5L971,566.71a4.65,4.65,0,0,0-.86,2.38,1.51,1.51,0,0,1-.25.51,2.35,2.35,0,0,1-.32-.52c-.18-.6-.32-1.22-.5-1.83-.13-.45-.45-.53-.83-.32-.64.35-1.27.72-2,1.13-.25-.1-.23-.26,0-.58a18.92,18.92,0,0,0,1-1.78.39.39,0,0,0-.27-.64C966.2,564.85,965.43,564.67,964.57,564.45Zm7.15-.32c.33-.78-.25-1.18-.69-1.66a1.3,1.3,0,0,0-.86-.39,1.69,1.69,0,0,0-1.76.77c-.13.19-.44.37-.42.53.11.79-.25,1.75.72,2.28,0,0,.08.08.12.13.23.25,1.69.53,1.86.28C971.11,565.46,972.16,565.19,971.72,564.13Zm.67-.49v.93l1.36-.46Zm-5,.92v-.91l-1.33.46Zm.47-2,.62-.65-1.32-.71Zm3.42,3.69,1.32.68-.63-1.29Zm-3.38-.65-.32,1,.84-.35Zm1.64-4.16h.74l-.37-.86Zm.38,6.16.36-.92-.75,0Z" transform="translate(-924 -504.32)"/><path class="cls-1" d="M958.78,509.35c-1-.42-2.08-.85-3.12-1.3a2.1,2.1,0,0,1-.49-.41c.2-.1.41-.29.62-.3,1.28,0,2.56,0,3.84.07a.77.77,0,0,0,.77-.41q.55-.88,1.17-1.74c.1-.14.34-.19.51-.28a2.53,2.53,0,0,1,.13.58c0,.24-.08.48-.07.71,0,1,.31,1.27,1.31,1.32,1.52.07,3,.15,4.55.25a1.47,1.47,0,0,1,.5.22c-.1.17-.16.42-.32.51-1.24.68-2.49,1.34-3.77,2,.36.63.76,1.29,1.11,2a1.84,1.84,0,0,1,.05.71,2.21,2.21,0,0,1-.64-.13c-.84-.47-1.65-1-2.49-1.44a1.07,1.07,0,0,0-.8-.08c-1.31.49-2.59,1-3.89,1.56a2,2,0,0,1-.65,0,1.72,1.72,0,0,1,0-.61C957.66,511.55,958.2,510.51,958.78,509.35Zm1-.14,1.63,1c.81.52,1,.52,1.84-.06-.18-.28-.37-.57-.54-.85s-.33-.6-.51-.88a.54.54,0,0,0-.23-.24,1.56,1.56,0,0,0-2,.68ZM964,510l2.95-1.41,0-.15-4.05-.23Zm-4.58-.24-1.4,2.57,3.38-1.35Zm-.21-.9.5-.78h-2Zm3.67,2.29,1.53.93.08-.11-.77-1.17Zm-1.09-3.7-.26-.86-.56.86Z" transform="translate(-924 -504.32)"/><path class="cls-1" d="M969.9,547.64c-.61-.2-1.22-.37-1.81-.59-.16-.06-.27-.24-.4-.36.15-.11.27-.28.44-.33.37-.12.76-.19,1.31-.31l-1.27-.68c-.45-.25-.47-.43-.09-.75a2,2,0,0,1,1.57-.58,19.61,19.61,0,0,0,2,0c-.2-.37-.34-.68-.51-1-.29-.53-.62-1-.89-1.56a.54.54,0,0,1,0-.48c.09-.09.33-.06.49,0a10.83,10.83,0,0,0,1.25.2c.94,0,1.88,0,2.82,0,.17,0,.44.11.48.23a.6.6,0,0,1-.19.5c-.58.55-1.18,1.08-1.78,1.61l-.51.42c.8,0,1.51,0,2.22,0a2.16,2.16,0,0,1,.57.2,2,2,0,0,1-.24.56,5.11,5.11,0,0,1-.7.64c.53.14.95.23,1.35.36a.75.75,0,0,1,.43.34c0,.08-.14.3-.26.41-.44.4-.9.78-1.5,1.3l2.59.47a1.4,1.4,0,0,1,.41,0c.12.07.3.23.28.31s-.19.33-.31.34c-3.12.2-6.22,1-9.37.39a2.42,2.42,0,0,1-.63-.34,2.59,2.59,0,0,1,.53-.47c.55-.28,1.12-.51,1.69-.76Zm4.89,1,0-.18a3.69,3.69,0,0,1-.56-.11c-.19-.07-.38-.17-.56-.25a2.69,2.69,0,0,1,.34-.57c.43-.43.89-.83,1.41-1.32-.56-.1-1-.15-1.42-.25a.64.64,0,0,1-.4-.29c0-.08.1-.28.2-.38a8,8,0,0,1,.65-.59c-.14,0-.19-.06-.24-.06l-4.85,0a2.38,2.38,0,0,0-.5.15V545c.57.23,1.14.45,1.7.7.14.06.33.22.33.33s-.19.29-.32.35a9.6,9.6,0,0,1-1.05.29,8,8,0,0,0,1.26.49,3.79,3.79,0,0,1,.62.35,3.41,3.41,0,0,1-.58.5c-.45.25-.93.45-1.39.68l0,.22Zm-.61-6.67-.06-.14h-2.93l1.07,1.72Z" transform="translate(-924 -504.32)"/><path class="cls-1" d="M935.5,530.9c-.47,0-.88.05-1.29.11a.57.57,0,0,0-.36.23c-.12.16-.15.39-.27.53a2.42,2.42,0,0,1-.51.38,3.11,3.11,0,0,1,0-.61,4.47,4.47,0,0,1,.25-.6l-1.05-.55c-.29.27-.55.55-.84.79-.09.07-.28,0-.42,0,0-.15,0-.37,0-.42a1.5,1.5,0,0,0,.52-2,1.88,1.88,0,0,1,0-.36c-1.09.11-2.16.23-3.22.32a6.87,6.87,0,0,1-1.2,0c-.15,0-.29-.19-.44-.28.16-.1.3-.26.46-.28,1.25-.11,2.51-.2,3.76-.28.48,0,.81-.18.88-.75a6.63,6.63,0,0,1,.38-1.2,9,9,0,0,1-1.14-.38c-.14-.06-.2-.29-.3-.44a1.48,1.48,0,0,1,.49-.08c.41.09.8.23,1.23.36l.42-.81c-.29-.42-.59-.79-.83-1.2-.07-.13,0-.34,0-.52.15.07.31.12.45.2s.06.1.09.15c.75,1.1.75,1.1,2.08.6-.08-.83-.17-1.68-.27-2.53a3.06,3.06,0,0,1-.07-.59,2.26,2.26,0,0,1,.19-.49c.13.14.34.27.36.44.13.8.21,1.62.3,2.43,0,.22,0,.44.06.65l1.78.35c.07-.35.12-.7.22-1,0-.13.23-.21.34-.32.08.14.23.28.21.41,0,.4-.14.78-.22,1.21l.51.3c.31-.35.6-.71.93-1,.09-.09.3,0,.45-.06a1.08,1.08,0,0,1-.08.46c-.23.32-.5.61-.71.85a17.32,17.32,0,0,0,1.06,1.39.77.77,0,0,0,.61.13c1.15-.13,2.29-.29,3.44-.45.12,0,.26,0,.35,0a1.53,1.53,0,0,1,.38.29c-.12.09-.23.22-.36.24l-2.73.33c-.12,0-.24.05-.36.05-.75,0-1.31.24-1.39,1.15,0,.32-.33.62-.55,1a9.11,9.11,0,0,1,.91.37c.12.06.19.21.29.32-.14.07-.28.21-.42.21a1,1,0,0,1-.56-.18c-.64-.46-1.09-.15-1.55.33a4.65,4.65,0,0,1,.6.66c.07.1,0,.3,0,.46a1.36,1.36,0,0,1-.42-.09c-.13-.07-.22-.22-.34-.33a.94.94,0,0,0-1.39-.07.71.71,0,0,0-.1.53c.12,1.24.28,2.47.39,3.7a1.86,1.86,0,0,1-.23.63c-.11-.18-.29-.35-.31-.55C935.81,533.65,935.66,532.3,935.5,530.9Zm-1-.5a6.27,6.27,0,0,0,4.27-2.12,1.67,1.67,0,0,0-.17-2.54,4.77,4.77,0,0,0-5.1-1,.45.45,0,0,0-.2.21,8.17,8.17,0,0,0-1.14,3.24C932.06,529.68,932.77,530.41,934.51,530.4Z" transform="translate(-924 -504.32)"/><path class="cls-1" d="M946.9,550.52c-.95-.15-1.88-.29-2.8-.45a.75.75,0,0,1-.67-.85c0-1.13-.06-2.27,0-3.4.06-.85.33-1.06,1.16-1.17,1.63-.22,3.25-.42,4.88-.59a5.81,5.81,0,0,1,1.31.08,1,1,0,0,1,.89.77,26.6,26.6,0,0,1,.59,3.16,1.56,1.56,0,0,1-1.48,1.89C949.52,550.21,948.2,550.34,946.9,550.52Zm4.25-2.1a2.1,2.1,0,0,0,.11-1.81c-.38-1.94-.52-2-2.48-2-1,0-1.54.64-2.24,1.07a1.15,1.15,0,0,0-.32.74,6.21,6.21,0,0,0,0,1.14c.05,1.36.73,1.88,2,1.52.66-.18,1.4-.38,1.54-1.16s-.45-1.24-1-1.71a.84.84,0,0,0-1.15-.12c-.3.24-.71.65-.67.93s.46.73.77,1.05c.06.07.4,0,.5-.12a1.05,1.05,0,0,0,.24-.64c0-.07-.33-.15-.57-.25a2.83,2.83,0,0,1,.17.47s-.15.12-.18.1a.57.57,0,0,1-.28-.25c-.15-.38.14-.7.57-.65s.9.39.85.75c-.09.59-.84,1.2-1.3,1.08a1.69,1.69,0,0,1-1.26-1.75,1.72,1.72,0,0,1,2.14-1.23,7.5,7.5,0,0,1,1.39,1l0,0,.3,1.19a2.61,2.61,0,0,1,.81.1c.08,0,0,.38,0,.59s-.28.33-.34.31a2.84,2.84,0,0,1-.49-.31l-1.54,1.2c.57-.12,1.23-.23,1.87-.42C951,549.1,951.34,548.9,951.15,548.42Zm-4.55-3.51c-2.27.37-2.45-.07-2.46,2.47,0,2.09.28,2.34,2.38,2.31,0,0,.06,0,.1,0C945.38,548.47,945.34,545.93,946.6,544.91Z" transform="translate(-924 -504.32)"/><path class="cls-1" d="M925.57,542.21h2.74c-.16-.18-.28-.33-.41-.46-.33-.35-.69-.68-1-1-1.14-1.3-1.13-2.12,0-3.4a5.46,5.46,0,0,0,1.51-3.36l-2.64.28c.05.46.11.85.12,1.24,0,.14-.14.28-.21.43-.13-.12-.36-.22-.39-.36-.1-.44-.14-.9-.2-1.36s.12-.5.47-.56a19.11,19.11,0,0,1,6.91,0c.43.08.58.27.52.68a11.36,11.36,0,0,1-.17,1.19c0,.16-.25.28-.39.43-.08-.16-.22-.32-.22-.48a9.61,9.61,0,0,1,.12-1.18l-2.65-.32a5.46,5.46,0,0,0,1.08,2.87c.14.19.31.37.47.55,1.11,1.23,1.12,2.1,0,3.35-.45.5-.93,1-1.44,1.51h2.74a7.06,7.06,0,0,1-.08-.86c0-.12.14-.24.21-.37.14.09.37.16.39.27a5.74,5.74,0,0,1,.16,1.36c0,.12-.29.33-.46.34-1.21,0-2.43,0-3.64,0-.36,0-.72,0-1.08,0-.9,0-1.79,0-2.69.08-.32,0-.54-.06-.51-.4a8,8,0,0,1,.19-1.3c0-.12.24-.2.37-.3.08.13.23.27.23.41A4.12,4.12,0,0,1,925.57,542.21Zm3-5.91c-.43.51-.87,1-1.29,1.55a1.4,1.4,0,0,0-.11,2c.57.77,1.25,1.48,1.94,2.28.72-.85,1.41-1.59,2-2.41a1.27,1.27,0,0,0-.11-1.85,6.07,6.07,0,0,1-1.84-3.43l-.61,1.86Z" transform="translate(-924 -504.32)"/><path class="cls-1" d="M991.8,547.61c1.27-.61,1.94-.29,2.21,1a3.36,3.36,0,0,1,.07.95c0,.13-.19.24-.29.37-.11-.12-.28-.23-.32-.37a7.32,7.32,0,0,0-.12-.94,2.92,2.92,0,0,0-.54-.7c-.24.21-.63.38-.68.64a10.4,10.4,0,0,0-.14,1.77c0,.31.25.8-.23.85s-.33-.51-.42-.81a11.75,11.75,0,0,0-.55-1.8,1.09,1.09,0,0,0-.92-.45c-.22,0-.46.5-.54.81a7.68,7.68,0,0,0,0,1.07c0,.18-.18.34-.27.51-.13-.15-.32-.28-.36-.45a4.39,4.39,0,0,1,0-1c0-1.32,1-2.28,2.5-1.23a6.67,6.67,0,0,0-.33-2.72c-.21-.49-.66-.62-1-.22a5.2,5.2,0,0,0-.68,1.4c-.08.22,0,.49,0,.72a.47.47,0,0,1-.31.29c-.09,0-.3-.16-.3-.26a3.13,3.13,0,0,1,.82-2.65,1.4,1.4,0,0,1,1.81,0,6.47,6.47,0,0,0-.46-2.9,1.19,1.19,0,0,0-1.56-.65c-.54.18-.79.62-.68,1.36,0,.39.24.75.32,1.14a1.62,1.62,0,0,1-.07.57c-.17-.11-.46-.18-.51-.34a7.54,7.54,0,0,1-.38-1.61,1.54,1.54,0,0,1,.87-1.64,1.87,1.87,0,0,1,2,.19l.39.34a4.12,4.12,0,0,1,0-.72,2.42,2.42,0,0,1,.23-.49l.43.39a.69.69,0,0,1,.07.15c1.91-.4,3,.81,2.5,2.71,0,.16-.25.27-.39.4a2,2,0,0,1-.21-.54c0-.4,0-.81,0-1.19a1,1,0,0,0-1.6-.67.78.78,0,0,0-.3.52c0,.83,0,1.67,0,2.51.07,0,.12,0,.14,0a1.35,1.35,0,0,1,1.61-.23,1.43,1.43,0,0,1,.63,1.51,7,7,0,0,1-.24,1.29c0,.12-.26.18-.39.26-.07-.14-.22-.29-.21-.43,0-.51.17-1,.16-1.54s-.39-.77-.89-.47a1.77,1.77,0,0,0-.79,1.54C991.77,546.42,991.8,547,991.8,547.61Z" transform="translate(-924 -504.32)"/><path class="cls-1" d="M988.28,507.55c0-.74-.12-1.39-.13-2.05,0-.17.17-.34.27-.52.13.17.34.32.37.5.08.51.05,1,.15,1.55,0,.19.26.49.43.51.63.06,1.26,0,2,0-.15-.86-.31-1.64-.41-2.42,0-.18.14-.38.22-.58.14.14.36.25.4.41.14.58.23,1.17.32,1.76.13.83.13.83,1,.79l.42,0c0-.8,0-1.59,0-2.38a1.69,1.69,0,0,1,.2-.54c.15.15.42.29.43.44,0,1,0,1.92,0,2.87,0,.12-.3.29-.48.31-.43,0-.87,0-1.34,0-.28,1.77-1.12,2.9-3.07,2.83,0,1.39,0,2.74,0,4.09,0,.4.1.8.09,1.19,0,.18-.18.34-.28.51-.12-.14-.33-.28-.34-.44-.08-1.65-.15-3.31-.18-5,0-.37-.06-.56-.42-.72a3.46,3.46,0,0,1-1.91-2,.72.72,0,0,0-.84-.54,7.51,7.51,0,0,1-1.5,0c-.19,0-.5-.25-.51-.41a23.31,23.31,0,0,1-.06-2.51c0-.17.19-.33.3-.49.11.17.31.34.32.52,0,.72,0,1.43,0,2.2h1.9c0-.63-.12-1.26-.12-1.89,0-.19.16-.38.25-.57.13.16.34.31.37.49a12.63,12.63,0,0,1,.13,1.62c0,.33.13.46.46.44Zm.84.69c0,.57-.07,1.09-.1,1.6,0,.15,0,.31,0,.45a2,2,0,0,0,2.27-2.05Zm-.67,0h-2a3.38,3.38,0,0,0,1.84,1.94Z" transform="translate(-924 -504.32)"/><path class="cls-1" d="M950.38,504.65a2.07,2.07,0,0,1,.55.17l3.39,2.14a.8.8,0,0,1,.31,1.25,10.68,10.68,0,0,1-3,3.42,2,2,0,0,1-2.24.17,9.32,9.32,0,0,1-3.35-2.75,3.19,3.19,0,0,1-.56-1.23,1.09,1.09,0,0,1,.32-.93c1.25-.73,2.54-1.39,3.83-2.05A3,3,0,0,1,950.38,504.65Zm1.57,5.71c.59-.71,1.2-1.41,1.77-2.14.27-.34.2-.65-.19-.9-.94-.57-1.85-1.19-2.8-1.74a2.11,2.11,0,0,0-.85-.12,3.93,3.93,0,0,1,2.69,2.2c.26.63.16,1.12-.36,1.41a3.13,3.13,0,0,1-2.67.2.65.65,0,0,1-.32-1.13,4.48,4.48,0,0,1,1-.82c.12-.08.35,0,.52,0-.06.19-.07.42-.2.54a7.17,7.17,0,0,1-.94.73,2.75,2.75,0,0,0,2.06,0c.32-.11.43-.37.23-.6a10.09,10.09,0,0,0-1.47-1.52,1.2,1.2,0,0,0-1.46.13,1.73,1.73,0,0,0-.84,1.51,23.28,23.28,0,0,0,.45,2.47c1.27.84,2,1.26,3.27-.09Zm-4.49-.6.16-.08a3.84,3.84,0,0,1,.46-3.34c-.49.26-.93.54-1.38.8a.68.68,0,0,0-.31,1C946.7,508.68,947.1,509.21,947.46,509.76Z" transform="translate(-924 -504.32)"/><path class="cls-1" d="M946.93,567.51c-.35-.12-.65-.18-.91-.3a8.57,8.57,0,0,1-3.45-2.8,2.42,2.42,0,0,1-.49-1.07,1.18,1.18,0,0,1,.31-1c1.19-.71,2.43-1.36,3.67-2a1.63,1.63,0,0,1,1.75.19c1,.66,1.94,1.26,2.92,1.87a.77.77,0,0,1,.3,1.2,9.82,9.82,0,0,1-3.1,3.43A6.76,6.76,0,0,1,946.93,567.51Zm2.83-4.82h0c-.75-.49-1.52-1-2.26-1.47a1.19,1.19,0,0,0-1.24-.13c-.88.43-1.76.85-2.61,1.33s-1,1-.36,1.67a12.11,12.11,0,0,0,2.37,2.15c1.16.81,2,.57,2.93-.63l-.67.15a13.49,13.49,0,0,1-1.77.26,1.62,1.62,0,0,1-1.65-1.3,2.11,2.11,0,0,1,.08-.58,6.78,6.78,0,0,0,.81.92,1.48,1.48,0,0,0,.84.39,9.51,9.51,0,0,0,1.83-.27c.16,0,.41-.32.39-.47a2.73,2.73,0,0,0-1.22-2.28,1,1,0,0,0-1.35.06,1.45,1.45,0,0,0-.12,1.73c.33.49.81.33,1.25.22s.56-.36.38-.67a2.81,2.81,0,0,0-.78-.71s-.23.2-.31.27a2.08,2.08,0,0,1,.77.18c.08.07,0,.58-.1.6a1,1,0,0,1-.78-.07,1,1,0,0,1-.29-.77c0-.21.32-.45.55-.55.51-.22,1.05.12,1.36.77a1,1,0,0,1-.37,1.39,1.63,1.63,0,0,1-2.16-.29,2,2,0,0,1,.34-2.62,1.48,1.48,0,0,1,2.18.23c.36.4.64.86,1,1.29l.38,1.68c.33-.46.66-.89.95-1.35C950.44,563.18,950.41,563.1,949.76,562.69Z" transform="translate(-924 -504.32)"/><path class="cls-1" d="M977.47,522.8c.81.49,1.64,1,2.44,1.48s.68.47.23,1.15c-.22.33-.4.69-.65,1-.09.12-.32.12-.48.17,0-.17-.11-.38,0-.52.19-.39.44-.75.74-1.24-1-.51-1.88-1-2.83-1.46a.88.88,0,0,0-.79.2,15.64,15.64,0,0,0-1.15,1.36c.49.32.93.58,1.32.89a2.28,2.28,0,0,1,.4.56c-.25,0-.54.1-.72,0-.5-.29-.95-.66-1.42-1a.45.45,0,0,1-.11-.72l1.41-1.87H972a11.68,11.68,0,0,1-.25,1.33c0,.16-.27.26-.41.4a1.77,1.77,0,0,1-.21-.53c0-.88.06-1.75.13-2.62,0-.16.17-.3.26-.45.13.12.32.22.37.38a3.15,3.15,0,0,1,.11.8h3.87c-.13-.19-.22-.3-.29-.43-.42-.81-.86-1.61-1.24-2.44a.69.69,0,0,1,.14-.61,6.31,6.31,0,0,1,1.11-.81c.12-.07.34,0,.51,0a3.09,3.09,0,0,1-.12.46c0,.08-.16.13-.24.18-.85.62-.87.63-.38,1.54.26.49.6.94.9,1.4a.41.41,0,0,0,.7.11l1.73-1.55c-.5-.46-.93-.82-1.31-1.22-.12-.14-.11-.39-.17-.59.2,0,.45,0,.57.09a11.55,11.55,0,0,1,1.4,1.31.65.65,0,0,1,0,.65c-.49.62-1.05,1.19-1.56,1.76l4.18.53a8.39,8.39,0,0,1-.27-.85,1.57,1.57,0,0,1,.09-.51c.17.08.46.14.5.27.2.74.36,1.5.49,2.26,0,.15-.18.34-.28.51-.12-.17-.26-.33-.37-.52s0-.19,0-.44l-4.46-.61Z" transform="translate(-924 -504.32)"/><path class="cls-1" d="M963.6,553.63c.08,1.47.17,2.84.24,4.21a2.57,2.57,0,0,1,0,.36c-1.25-.44-2.48-.85-3.69-1.3a1,1,0,0,0-1,.12,8.44,8.44,0,0,1-6.25,1.68,6.56,6.56,0,0,1-3.58-1.89c2.2-2.49,6.13-4.2,9.76-1.25a.77.77,0,0,0,1.07.08C961.24,555,962.38,554.33,963.6,553.63ZM954,556.25h4.87a5.48,5.48,0,0,0-4.87-1.7Zm-1.72.66-.22,1.16c.77.1,1.49.22,2.21.27a.9.9,0,0,0,.72-1.27.39.39,0,0,0-.28-.15C953.93,556.9,953.14,556.91,952.3,556.91Zm11.19.77-.23-3.59c-.37.43-1,.32-.92.93s.07,1.23,0,1.85c0,.3,0,.49.35.56A6,6,0,0,1,963.49,557.68Zm-12,0,.19-.07v-2.12l-1.44,1.26Zm9.89-2.25-.17-.11-1.25,1,1.23.62s.07,0,.19,0ZM958.29,557h-1.94v1c.3-.13.56-.22.8-.35S957.8,557.23,958.29,557Zm-6.17-1.7a7.82,7.82,0,0,0,.14.78c0,.1.18.25.24.24s.3-.15.31-.24c0-.35,0-.7,0-1.16Zm3.35,3c.57-.21.43-.68.43-1.05,0-.1-.21-.19-.43-.37Zm-1.82-3.63c-.44.27-.48,1.13-.15,1.68Zm8.29.48h-.15v2h.15Z" transform="translate(-924 -504.32)"/><path class="cls-1" d="M970.29,520.1c-.24,1.44-.44,2.8-.69,4.15a1.77,1.77,0,0,1-1.71,1.49A10.1,10.1,0,0,1,963,525a1.13,1.13,0,0,1-.63-1.2c.07-1.51.17-3,.31-4.53.07-.77.3-1.53.39-2.3a1.06,1.06,0,0,1,.93-1,18.9,18.9,0,0,1,2.61-.25c.69,0,1.39.1,2.09.1a1,1,0,0,1,1.08.91C970,517.82,970.14,519,970.29,520.1Zm-.89-.16c-.13-.88-.24-1.79-.42-2.69,0-.21-.3-.52-.46-.53-1.37,0-2.74,0-4.11,0a.77.77,0,0,0-.72.76c-.06.53-.23,1.06-.28,1.59-.13,1.39-.25,2.78-.28,4.17a1.12,1.12,0,0,0,.56.86,7.74,7.74,0,0,0,3.62.64c.94-.07,1.37-.38,1.55-1.29C969.09,522.32,969.22,521.15,969.4,519.94Z" transform="translate(-924 -504.32)"/><path class="cls-1" d="M929.07,505.38a3.21,3.21,0,0,1,3.17,2.1A3,3,0,0,1,931,511a3.86,3.86,0,0,1-5-.3,2.84,2.84,0,0,1,.34-4.38A4.67,4.67,0,0,1,929.07,505.38Zm1.21.94c.21.3.44.57.62.88.07.12,0,.32,0,.48l-.42-.22c-.48-.26-.94-.71-1.42-.73a5,5,0,0,0-1.84.49.64.64,0,0,0-.34.51,2.88,2.88,0,0,0,1.39,2.13c.68.35,1.19.3,1.54-.22a1.62,1.62,0,0,0-.23-1.84c-.34-.28-1.37-.11-1.49.3a1,1,0,0,0,.2.79,1.21,1.21,0,0,0,.72.27c.06,0,.17-.23.23-.31a1.88,1.88,0,0,1-.74,0c-.11,0-.2-.36-.15-.5s.35-.42.44-.38a1.58,1.58,0,0,1,.81.57.92.92,0,0,1-.23.81c-.42.45-1,.33-1.51-.22s-.54-1.17-.11-1.59a1.74,1.74,0,0,1,2.3-.16,2.12,2.12,0,0,1,.08,2.74,1.51,1.51,0,0,1-2.25.11,4.73,4.73,0,0,1-1.68-2.69,1.66,1.66,0,0,0-.11,2.05,2.71,2.71,0,0,0,2.56,1.47,3.07,3.07,0,0,0,2.79-1.56A2.3,2.3,0,0,0,930.28,506.32Z" transform="translate(-924 -504.32)"/><path class="cls-1" d="M955.2,571.49v3.08h3.31v-2.05H956.2l-.11,1.35h1.55l0-.66-.67-.08-.12.14-.28.37c-.07-.11-.21-.24-.19-.32s.16-.48.27-.49a3,3,0,0,1,1.19,0c.15,0,.28.42.29.65,0,.79,0,.8-.78.79a13.86,13.86,0,0,1-1.44-.05.59.59,0,0,1-.4-.37,5.6,5.6,0,0,1,0-1.08c0-.21.06-.43.09-.68,1,0,2.05,0,3.07,0,.11,0,.31.22.31.34a19.65,19.65,0,0,1,0,2,.55.55,0,0,1-.36.38c-1.27.07-2.55.11-3.83.13-.11,0-.3-.26-.31-.4q0-1.5,0-3c0-.4.18-.59.63-.59,3.22,0,6.44,0,9.66,0a1.5,1.5,0,0,1,.74.2,22.86,22.86,0,0,1-5,.23v3.08h3.3v-2.05h-2.31l-.12,1.35h1.55l.05-.66-.68-.07a.47.47,0,0,0-.1.09c-.11.14-.21.28-.32.41-.06-.11-.19-.25-.17-.34s.18-.46.3-.47a2.92,2.92,0,0,1,1.18,0c.15,0,.23.43.27.67.1.56-.09.89-.74.78-.21,0-.44,0-.65,0-.41,0-1.13-.07-1.15-.2a7.11,7.11,0,0,1,.05-1.84c0-.07.25-.17.38-.17l2.52,0c.34,0,.51.13.5.5,0,.58,0,1.16,0,1.74,0,.36-.15.57-.52.58-1.21,0-2.43.09-3.65.09-.12,0-.35-.31-.35-.47,0-1,0-2,0-3.07Z" transform="translate(-924 -504.32)"/><path class="cls-1" d="M940.66,538.36c0-.74-.13-1.42-.13-2.09,0-1.36,0-2.72.05-4.07,0-.19.25-.37.38-.56a2.14,2.14,0,0,1,.27.63c.07,2.09.11,4.19.16,6.28a2.73,2.73,0,0,0,.05.37,5.48,5.48,0,0,1,.45-.74,3.06,3.06,0,0,1,.87-.78,1.36,1.36,0,0,1,1.06,0c.21.13.3.62.3.95a3.06,3.06,0,0,1-.27,1.1c-.05.13-.28.19-.44.28,0-.17-.16-.35-.13-.5.07-.42.21-.83.35-1.34a2.32,2.32,0,0,0-1.67,2.29l2.19-.15c.47-.05.66.1.61.6-.07.85-.08,1.71-.15,2.57,0,.15-.19.29-.29.43-.13-.15-.36-.3-.36-.45,0-.62,0-1.24.07-1.86,0-.19,0-.39,0-.68-.65.1-1.26.15-1.85.29-.14,0-.31.35-.3.53,0,.57.13,1.15.16,1.73,0,.17-.16.34-.25.52-.13-.14-.35-.26-.38-.42-.12-.71-.19-1.42-.29-2.2-.58.13-1.13.21-1.65.38a.76.76,0,0,0-.43.51c-.06.5,0,1,0,1.5,0,.15-.17.3-.27.45-.12-.13-.34-.25-.36-.38a14.34,14.34,0,0,1-.05-1.85c0-.56.44-.82,1-.93l1.62-.32a2.47,2.47,0,0,0-1.8-2.15.75.75,0,0,0-.55.45,7.64,7.64,0,0,0,0,1.07c0,.16-.16.3-.25.46l-.39-.37s0,0,0-.05c-.1-.79-.25-1.66.49-2.16s1.38.12,2,.52Z" transform="translate(-924 -504.32)"/><path class="cls-1" d="M955,563.44l2.86-.47c0-.33,0-.64,0-1s-.1-.68.34-.67c.14,0,.31.36.38.59a5.14,5.14,0,0,1,.11.88l3.18-.42a11.28,11.28,0,0,1-.31-1.28c0-.2.14-.42.22-.63.16.14.38.25.45.43.17.44.27.92.42,1.37.21.66.15.77-.53.85l-3,.38a3,3,0,0,0-.39.11l.13,1.41c.87-.12,1.67-.23,2.48-.32s.73,0,.72.65.06,1.24,0,1.86c0,.21-.21.58-.36.6-.4.06-.37-.31-.36-.59v-1.76l-2.43.3c0,.45.07.88.09,1.31s.1.72-.36.76-.34-.39-.37-.65c-.06-.41-.08-.83-.12-1.32l-2.22.19a14.73,14.73,0,0,1,0,1.49c0,.2-.23.37-.36.56-.12-.18-.32-.34-.34-.53-.05-.56,0-1.12,0-1.68s.21-.58.63-.6c.74,0,1.47-.11,2.27-.17l-.13-1.43-2.73.45c-1,.17-1,.14-1-.82,0-.54,0-1.08,0-1.61,0-.18.23-.34.35-.5.12.17.33.33.35.51C955,562.27,955,562.81,955,563.44Z" transform="translate(-924 -504.32)"/><path class="cls-1" d="M953.18,535.64c-.5.53-1.18.21-1.77.3l-.49.93.91,1.22c-.68.22-.93-.21-1.18-.52s-.51-.4-.84-.15l-.12,1.48-.2,0c-.43-.36-.23-.93-.33-1.44l-.56-.11-.81,1.52-.2-.06c-.24-.57.24-1.07.3-1.6-.3-.34-.53-.33-.82,0a4.84,4.84,0,0,1-1.09.91c-.22-.88.58-1.14.94-1.66a.77.77,0,0,0-.93-.78,5.78,5.78,0,0,1-1.14-.13c.15-.58.56-.48.88-.54s.66-.12,1-.18c-.18-.27-.35-.53-.54-.79s-.32-.44-.56-.76c.75-.09,1,.47,1.39.75l.5-.36-.52-1.68.2-.09c.61.26.6,1,1,1.48l.76-.18.37-2,.24,0c.55.55.12,1.24.17,1.88.29.22.46.11.64-.19a14.43,14.43,0,0,1,.82-1.22l.22,0a1.93,1.93,0,0,1,0,.59c-.12.32-.33.6-.44.92a3.38,3.38,0,0,0-.09.72l.19.05c.38-.21.74-.44,1.13-.64a1.51,1.51,0,0,1,.48-.06c-.06.17-.07.39-.18.5a4.05,4.05,0,0,1-.81.62c-.31.19-.43.4-.22.74l1.77.12Zm-3.95-1.74c-1.1,0-1.82.57-1.83,1.46s.73,1.36,1.72,1.35,1.45-.5,1.45-1.24C950.57,534.52,950,533.9,949.23,533.9Z" transform="translate(-924 -504.32)"/><path class="cls-1" d="M950.37,516.58l-1.3,0c-.08.71-.17,1.38-.22,2,0,.41-.2.61-.62.64-.58,0-1.15.14-1.73.17-.14,0-.28-.19-.43-.29l.4-.34s.08,0,.12,0c1.71-.12,1.87-.32,1.71-2.14l-1.23.12a3.51,3.51,0,0,1,0,.73c0,.14-.19.24-.29.36-.12-.14-.32-.27-.33-.42,0-.57-.4-1.12-.14-1.71.07-.17.15-.33.22-.49a2.59,2.59,0,0,1,.42.39,1.34,1.34,0,0,1,.13.46l1.28-.13-.11-1.12c-.48,0-.92,0-1.35,0-.16,0-.3-.18-.45-.28.14-.13.28-.36.43-.37a9.72,9.72,0,0,1,1.62.08c.15,0,.34.25.39.42.09.38.11.78.17,1.24l1.24-.1c0-.49.07-.94.07-1.4s.13-.53.52-.56c.76,0,1.51-.16,2.27-.2.2,0,.41.19.61.29-.19.12-.37.31-.57.34-.69.1-1.39.14-2.14.21v1.28h.62a.51.51,0,0,0,0-.14c0-.28-.29-.7.24-.74.12,0,.36.4.41.64a3,3,0,0,1,0,1.12c0,.18-.29.3-.44.45l-.38-.6H951v2.49c.49-.07.91-.15,1.34-.17.16,0,.33.13.49.2-.13.15-.23.39-.38.42-.52.11-1.06.15-1.6.21-.36,0-.51-.13-.51-.48Z" transform="translate(-924 -504.32)"/><path class="cls-1" d="M936.47,561c.93.06,1.87.09,2.8.2s1.09.28,1.2,1.14a12.67,12.67,0,0,1,.08,2.61c-.07.77-.46,1.07-1.22,1.16a12.43,12.43,0,0,1-5.22-.36c-.87-.26-.94-.35-.88-1.22a24.15,24.15,0,0,1,.32-2.54,1,1,0,0,1,1.06-.85c.61,0,1.23-.06,1.85-.09Zm-.38,2.92h0l.43.65c.59-.25,1.17-.73,1.59-.62s.73.88.68,1.51c.7,0,1-.27,1-1a9,9,0,0,0-.08-1.79c-.12-.85-.25-1-1.1-1-1.17,0-2.35,0-3.52,0-.58,0-.84.22-.91.71a20.23,20.23,0,0,0-.22,2.2.72.72,0,0,0,.38.51,9.65,9.65,0,0,0,4,.43l-.5-.74c-.46.19-.87.5-1.26.47s-.7-.4-1.06-.63a2.67,2.67,0,0,1-.46.41.63.63,0,0,1-.43,0,.37.37,0,0,1-.14-.29A1.16,1.16,0,0,1,936.09,564Z" transform="translate(-924 -504.32)"/><path class="cls-1" d="M927.82,520.26a2.52,2.52,0,0,1-.56-.08,1.52,1.52,0,0,1-.38-.34,1.62,1.62,0,0,1,.41-.22,2,2,0,0,0,.6-.15,2,2,0,0,0-.36-.35c-.12-.07-.3,0-.41-.08s-.16-.22-.24-.33a.93.93,0,0,1,.31-.19,4.21,4.21,0,0,1,.62,0l0-.18a2.59,2.59,0,0,1-.63-.06,1.86,1.86,0,0,1-.43-.25,2.17,2.17,0,0,1,.37-.32,6,6,0,0,1,.72-.23c-.22-.11-.45-.2-.66-.32a2.07,2.07,0,0,1-.29-.3,1.12,1.12,0,0,1,.35-.23,3,3,0,0,1,.61-.05v-.16a3.62,3.62,0,0,1-.59-.12,1.69,1.69,0,0,1-.37-.29,2.41,2.41,0,0,1,.39-.26c.23-.09.64.16.65-.39a5.7,5.7,0,0,1-.76-.14c-.11,0-.19-.2-.28-.31.1-.07.21-.21.3-.2.45,0,.89.12,1.33.16s.68,0,1,.06a1.31,1.31,0,0,1,.42.22,4,4,0,0,1-.4.32c-.08.05-.21,0-.3.06a3.29,3.29,0,0,0-.33.23,2.24,2.24,0,0,0,.37.2c.13,0,.29,0,.42,0s.23.15.23.21a.42.42,0,0,1-.21.3,4.58,4.58,0,0,1-.74.13v.17a3.8,3.8,0,0,1,.59.06,1.48,1.48,0,0,1,.37.2,2.67,2.67,0,0,1-.33.34c-.08,0-.21,0-.29,0a2.52,2.52,0,0,0-.33.24c.12.07.23.15.35.21s.17,0,.24,0l.5.32a3.39,3.39,0,0,1-.53.28,2.24,2.24,0,0,1-.52,0v.16a1.35,1.35,0,0,1,1,.32,2.13,2.13,0,0,1-.43.31,1.8,1.8,0,0,1-.48.06c-.15.34-.05.46.31.48a1.92,1.92,0,0,1,.6.28c-.21.1-.41.22-.62.31a.63.63,0,0,0-.34.18,3.19,3.19,0,0,1,.7.08c.14,0,.24.22.35.33a1.33,1.33,0,0,1-.37.23,7.5,7.5,0,0,1-.81.11l0,.26a7,7,0,0,1,.79.06c.1,0,.25.16.25.25s-.14.27-.22.27c-.44,0-.88-.07-1.32-.11a10,10,0,0,1-1.1-.09,1.47,1.47,0,0,1-.48-.3,2.73,2.73,0,0,1,.51-.26,2.24,2.24,0,0,1,.52-.05l.06-.19a5.08,5.08,0,0,1-.51-.17l-.68-.29c.24-.11.47-.22.71-.31a1.22,1.22,0,0,1,.34,0Z" transform="translate(-924 -504.32)"/><path class="cls-1" d="M979.33,549.11c-.27-.47-.11-.6.39-.58,1.35.07,1.94-.49,2-2h-2c-.27,0-.68.13-.68-.35s.4-.42.71-.42h1.81a3.13,3.13,0,0,0-1.44-1.63,2.42,2.42,0,0,1-.48-.25,2.63,2.63,0,0,1-.31-.48c.19,0,.41-.18.56-.12a3.6,3.6,0,0,1,2.13,1.91.83.83,0,0,0,1.16.55,3.8,3.8,0,0,1,2.24-2.72,1,1,0,0,1,.38-.16,2.87,2.87,0,0,1,.56.14,2,2,0,0,1-.32.47,11.83,11.83,0,0,0-1.43,1,5.64,5.64,0,0,0-.78,1.22l.1.17h2c.26,0,.65-.08.59.35,0,.16-.38.37-.6.38-.65.06-1.3,0-2,0a1.51,1.51,0,0,0,1.71,1.56c.2,0,.4.19.59.29-.19.12-.38.34-.58.36a2.27,2.27,0,0,1-2.49-2.17h-.8a2.39,2.39,0,0,1-1.27,2.34,2.15,2.15,0,0,1-1.85.12Z" transform="translate(-924 -504.32)"/><path class="cls-1" d="M986,524.74v-.55a2.63,2.63,0,0,1-.7-.1,2.51,2.51,0,0,1-.54-.4,3.2,3.2,0,0,1,.56-.27,6.16,6.16,0,0,1,.75-.11l0-.26a3,3,0,0,1-.74-.09,2.51,2.51,0,0,1-.55-.39,2.18,2.18,0,0,1,.54-.29,3.15,3.15,0,0,1,.76,0l0-.57a7.72,7.72,0,0,1-1-.15c-.13,0-.21-.23-.31-.35.12-.09.24-.26.37-.28,1.64-.2,1.74-.11,1.75,1.53v5.41a3.67,3.67,0,0,1,.87.33c.08.05.08.47,0,.52a4.33,4.33,0,0,1-.87.26c0,.16,0,.43-.08.7-.08.75-.17.84-.94.83a3.82,3.82,0,0,1-.89-.12.39.39,0,0,1-.23-.33.4.4,0,0,1,.28-.28,9.52,9.52,0,0,1,1.08,0l-.05-.6a9.13,9.13,0,0,1-1,0c-.14,0-.27-.18-.4-.28.13-.13.23-.34.38-.38a7.34,7.34,0,0,1,1-.12v-.19a7.38,7.38,0,0,1-.94-.16c-.15,0-.25-.23-.37-.35.14-.1.27-.25.42-.28a4.36,4.36,0,0,1,.82,0l0-.65a6.81,6.81,0,0,1-1-.15c-.12,0-.21-.23-.31-.34.12-.1.22-.25.36-.28a3.94,3.94,0,0,1,.6,0,1.09,1.09,0,0,0,.31-.18c-.1-.07-.19-.18-.3-.19s-.44,0-.65,0a1.53,1.53,0,0,1-.44-.29c.13-.13.25-.32.4-.36A6.06,6.06,0,0,1,986,524.74Z" transform="translate(-924 -504.32)"/><path class="cls-1" d="M989.79,521.68l0,.58a3.33,3.33,0,0,1,.78,0,1.79,1.79,0,0,1,.53.31,3.59,3.59,0,0,1-.5.37,6.33,6.33,0,0,1-.77.26c.27.07.55.11.8.2a2.34,2.34,0,0,1,.47.3,1.66,1.66,0,0,1-.45.36,5,5,0,0,1-.76.1v.55a8,8,0,0,1,1,.12c.15,0,.25.25.38.38a1.56,1.56,0,0,1-.41.26c-.24,0-.48,0-.72,0s-.18.1-.27.16a1.08,1.08,0,0,0,.28.21c.15,0,.33,0,.48,0a2.55,2.55,0,0,1,.52.31,2.11,2.11,0,0,1-.51.35,3.31,3.31,0,0,1-.74.1v.68a6.59,6.59,0,0,1,.89,0c.13,0,.24.18.36.28-.1.12-.19.3-.31.34a8.51,8.51,0,0,1-1,.17v.19l.63.06c.31.05.77-.06.77.42,0,.11-.49.26-.77.32s-.79-.15-.69.54a9.37,9.37,0,0,1,1,.06c.12,0,.32.18.31.25a1,1,0,0,1-.26.38s-.08,0-.12,0c-1.39.28-1.7,0-1.74-1.37,0-.5,0-1,0-1.33a6.33,6.33,0,0,1-1.07-.24.88.88,0,0,1,0-.55,4.83,4.83,0,0,1,1-.11v-5c0-.79.06-.85.87-.86a5.41,5.41,0,0,1,.9,0c.12,0,.32.17.31.23s-.13.35-.24.38A7.82,7.82,0,0,1,989.79,521.68Z" transform="translate(-924 -504.32)"/><path class="cls-1" d="M966.06,552.73a5.56,5.56,0,0,1-.55.64c-.11.09-.3.07-.45.1,0-.16-.13-.37-.07-.47a4.22,4.22,0,0,1,.7-.82,1.45,1.45,0,0,0,.4-1.49,3.23,3.23,0,0,1-.43.59,1.47,1.47,0,0,1-.5.16c0-.15-.12-.37,0-.46a19.29,19.29,0,0,1,1.33-1.52.55.55,0,0,1,.53-.05,20.9,20.9,0,0,1,1.8,1.28c.13.1.1.4.14.6a1.71,1.71,0,0,1-.6-.15c-.46-.31-.88-.66-1.35-1-.34,1.14-.26,1.32.69,1.77a4.5,4.5,0,0,1,.89.49c.13.1.13.36.18.54a1.14,1.14,0,0,1-.52,0c-.45-.2-.87-.44-1.32-.68-.24,1.07-.19,1.15.64,1.64a10,10,0,0,1,1.3.94c.1.08.07.33.1.51-.19,0-.42,0-.56-.07-.48-.31-.93-.66-1.39-1l-.17.09c.07,1.1.14,2.2.22,3.3a7.73,7.73,0,0,1,.07,1c0,.15-.19.29-.29.44-.12-.13-.32-.26-.34-.4-.11-1-.18-2.07-.27-3.1,0-.16,0-.31-.07-.54-.15.17-.23.33-.35.39a.54.54,0,0,1-.43,0c-.08-.06-.09-.29,0-.41a1.45,1.45,0,0,1,.37-.54A1.68,1.68,0,0,0,966.06,552.73Z" transform="translate(-924 -504.32)"/><path class="cls-1" d="M970.52,509.93l-.11-1.43a2.18,2.18,0,0,1-1.88-2.23c0-.15.19-.3.28-.45.13.12.31.23.37.38a8.64,8.64,0,0,0,.32,1,3.68,3.68,0,0,0,.65.66l.12-.11v-1.89a2.31,2.31,0,0,1,0-.59,1.56,1.56,0,0,1,.31-.43c.11.15.31.28.32.43.06.55.05,1.11.07,1.67a2,2,0,0,0,.06.35l.17.07c.23-.5.44-1,.7-1.5a2,2,0,0,1,.48-.47,1.81,1.81,0,0,1,.14.65,3.63,3.63,0,0,1-1.24,2.07.74.74,0,0,0-.19.44,2.63,2.63,0,0,0,0,.48,1.7,1.7,0,0,0,.78,1.67c.51.32.71,1.14,1,1.76.05.11-.11.33-.18.49-.15-.11-.4-.2-.45-.35a2.6,2.6,0,0,0-1-1.65c0,.55,0,1-.1,1.52,0,.17-.25.32-.38.48-.09-.18-.25-.35-.26-.53,0-.46,0-.94,0-1.48a2.66,2.66,0,0,0-1.3,1.11c-.13.17-.45.41-.54.36-.4-.21-.18-.54,0-.75C969.26,511.13,969.82,510.61,970.52,509.93Z" transform="translate(-924 -504.32)"/><path class="cls-1" d="M988.81,535.77a2.65,2.65,0,0,1-.5.32,2.09,2.09,0,0,1-.51.07c0-.19,0-.44.12-.56a4.31,4.31,0,0,1,.76-.57l.25-.16c.37-.23.76-.63,1.12-.61s.51.57.82,1l1.29-1.35c-.48-.38-.93-.71-1.33-1.08-.13-.11-.15-.34-.21-.52.19,0,.44-.07.57,0,.56.38,1.09.81,1.62,1.23.3.23.14.45,0,.65-.49.53-1,1.05-1.5,1.59l1,1.32c.52-.48,1-1,1.52-1.38a1.79,1.79,0,0,1,.53-.22c0,.21.06.51-.05.61a25.55,25.55,0,0,1-2,1.64c-.09.07-.44-.05-.55-.18-.33-.4-.59-.85-.9-1.3l-1.42,1.5c.35.26.75.53,1.11.85.13.11.15.34.22.51-.19,0-.43.1-.56,0a8.72,8.72,0,0,1-1.21-1,.61.61,0,0,1,0-1,4.22,4.22,0,0,0,.45-.49l0,0,.88-.81-.52-.74-1.08.79Z" transform="translate(-924 -504.32)"/><path class="cls-1" d="M955.64,537.9a6.16,6.16,0,0,1-.68.87.6.6,0,0,1-.53.09.52.52,0,0,1-.11-.49,8,8,0,0,1,.65-1.14.56.56,0,0,1,1-.05c.28.3.55.62,1,1.1.31-.39.57-.75.85-1.08.56-.64.87-.61,1.33.1.11.17.2.34.33.56.29-.2.57-.38.82-.59a.77.77,0,0,1,1.08,0c.3.23.59.48.87.73s.42.62-.12.88l-1.27-.9c-.37.23-.74.44-1.07.69s-.76.19-1-.26c-.1-.17-.21-.34-.34-.54-.29.24-.56.47-.84.68-.72.56-.88.56-1.51-.08A4.39,4.39,0,0,1,955.64,537.9Z" transform="translate(-924 -504.32)"/><path class="cls-1" d="M935.56,546.23a18.86,18.86,0,0,1,1.42-1.56c.22-.19.77-.34.94-.21s.29.64.34,1a1.21,1.21,0,0,1-.19.68,1.85,1.85,0,0,1-.45.43,2.26,2.26,0,0,1-.17-.6,5.2,5.2,0,0,1,.18-.85,3.75,3.75,0,0,0-1.68,2.72,10.33,10.33,0,0,1-.09,1.67c0,.16-.25.29-.38.44-.12-.15-.31-.29-.32-.44a6.23,6.23,0,0,1,0-1.43,3.65,3.65,0,0,0-1-2.83c-.33-.4-.57-.3-.74.22-.09.28,0,.75-.51.61-.11,0-.19-.57-.09-.8s.43-.84.72-.89a1.58,1.58,0,0,1,1.14.46A9,9,0,0,1,935.56,546.23Z" transform="translate(-924 -504.32)"/><path class="cls-1" d="M991.23,518.56l-2.32.1,0-.31c.64-.54,1.5-.36,2.23-.46.75-1.21.33-2.54.45-3.81l.19-.07c.11.17.33.33.33.5a4.06,4.06,0,0,0,1.25,2.79,1.64,1.64,0,0,1,.21.39l2.23-.1,0,.28c-.59.73-1.5.28-2.23.47-.47,1.34-1.18,2.61-1.09,4.13l-.27,0A2.44,2.44,0,0,1,992,522a1.18,1.18,0,0,1,0-.53A3.74,3.74,0,0,0,991.23,518.56Zm.75-1.9a2.44,2.44,0,0,0,.45,3.15A1.83,1.83,0,0,0,992,516.66Z" transform="translate(-924 -504.32)"/><path class="cls-1" d="M984.83,563.88a3.88,3.88,0,0,0,1.13-3.23,4.42,4.42,0,0,1,0-1.31c0-.18.22-.33.33-.49.13.15.35.28.39.45a9.28,9.28,0,0,1,.15,1.48,3.64,3.64,0,0,0,1.43,2.65c.37.34.54,0,.63-.34s-.06-.78.43-.69.25.57.2.85c-.16,1-.94,1.34-1.72.67a12.55,12.55,0,0,1-1.25-1.43,4.17,4.17,0,0,1-.38.72A7.74,7.74,0,0,1,985,564.5a.58.58,0,0,1-1-.41,5.21,5.21,0,0,1,.12-1.41c0-.1.29-.26.34-.22a.58.58,0,0,1,.26.38,7.94,7.94,0,0,1-.11,1Z" transform="translate(-924 -504.32)"/><path class="cls-1" d="M987.27,513.58c-.13.27-.18.4-.24.52a11.26,11.26,0,0,0-1.22,4.28,1.92,1.92,0,0,1-.25.55c-.17-.14-.4-.24-.5-.41-.6-1.12-1.18-2.26-1.76-3.39-.22-.41-.14-.64.35-.77,1-.28,2-.63,3-.92C986.78,513.39,987,513.52,987.27,513.58Zm-1.66,2.11.64-1.59-2.33.86,1.31,2.49.39-1.77Z" transform="translate(-924 -504.32)"/><path class="cls-1" d="M958.55,532.36a11.71,11.71,0,0,1-1.33.8,1.37,1.37,0,0,1-2-.84,3.68,3.68,0,0,1-.07-2.47,1.34,1.34,0,0,1,1.94-1,10.53,10.53,0,0,1,1.4.82l-.11-1.85c.42-.11.64,0,.63.47,0,.67,0,1.35,0,2.17l-.68-.33a13.69,13.69,0,0,0-1.49-.83.76.76,0,0,0-1,.47,3.67,3.67,0,0,0-.33,1.32,1.47,1.47,0,0,0,.79,1.5,1.84,1.84,0,0,0,1.81-.51c.27-.21.56-.39.92-.65,0,1,0,1.78,0,2.58,0,.13-.32.24-.61.44Z" transform="translate(-924 -504.32)"/><path class="cls-1" d="M960.82,530.32l.18-2.49.61-.09-.19,1.92a14.43,14.43,0,0,1,1.29-.72,1.36,1.36,0,0,1,2.07,1.15,5.92,5.92,0,0,1-.17,2.22,1.35,1.35,0,0,1-2.1.83,10.86,10.86,0,0,1-1.16-.79v1.86c-.48.11-.65-.06-.64-.51,0-.69,0-1.39,0-2.27.37.21.62.33.85.48s.31.31.5.42c.5.3,1.06.62,1.61.24a1.71,1.71,0,0,0,.69-1.69c-.06-.58-.14-1.21-.75-1.48s-1.19.08-1.71.45l-.91.64Z" transform="translate(-924 -504.32)"/><path class="cls-1" d="M993.89,558.87c.45.09.56.34.31.81a10.65,10.65,0,0,0-1.15,3.69c0,.26,0,.52-.07.78a.51.51,0,0,1-.26.34.45.45,0,0,1-.38-.19c-.66-1.23-1.3-2.47-1.91-3.73a.57.57,0,0,1,.08-.51C991.63,559.64,992.76,559.26,993.89,558.87ZM992.35,563l1-3.24-2.23.83Z" transform="translate(-924 -504.32)"/><path class="cls-1" d="M925.26,524.33c0-.54,0-1,.11-1.41s.33-.54.63-.24a11,11,0,0,0,4.07,2.57.47.47,0,0,1,.25.34.45.45,0,0,1-.29.32c-1.37.27-2.74.53-4.12.75a.58.58,0,0,1-.47-.34C925.34,525.63,925.31,524.93,925.26,524.33Zm1.93.25h0l-1.15-.92-.14.06.14,2.29,2.76-.53Z" transform="translate(-924 -504.32)"/><path class="cls-1" d="M928.68,564c-.51.57-.87,1-1.28,1.43-.14.15-.41.16-.63.24,0-.23,0-.52.07-.67.44-.57.95-1.08,1.4-1.64a.86.86,0,0,0,.23-.57c-.09-.89-.26-1.78-.35-2.67,0-.22.1-.61.25-.67.4-.14.41.24.45.51.16,1.05.34,2.09.44,3.14a1.35,1.35,0,0,0,.55,1,12.17,12.17,0,0,1,1.39,1.48c.11.13,0,.43,0,.65a1.73,1.73,0,0,1-.57-.25C930,565.32,929.37,564.67,928.68,564Z" transform="translate(-924 -504.32)"/><path class="cls-1" d="M991,559.09c-.84-.11-1-.28-.58-1,.65-1.12,1.36-2.19,2.08-3.27.11-.16.39-.21.58-.31l.15.63a3.12,3.12,0,0,0,.11.61c.26.64.57,1.27.8,1.93a.6.6,0,0,1-.23.53C992.94,558.55,992,558.81,991,559.09Zm1.53-3.31-1.45,2.4.11.15,2.22-.54Z" transform="translate(-924 -504.32)"/><path class="cls-1" d="M959.9,527.72v4.55H960v-4.59l.23-.1c.1.15.3.3.3.45-.05,2-.12,4-.19,6.08l-1,.15c0-.21,0-.36,0-.51,0-1.84,0-3.68,0-5.51C959.42,527.81,959.42,527.81,959.9,527.72Z" transform="translate(-924 -504.32)"/><path class="cls-1" d="M976.38,513.63l1.21,1c.44.37.45.65-.05.93a8,8,0,0,1-1.5.57c-.11,0-.28-.13-.43-.21.07-.13.11-.3.22-.38a8.21,8.21,0,0,1,.81-.48c-.3-.31-.59-.57-.85-.88-.43-.51-.4-.7.13-1.12l.63-.51a9.07,9.07,0,0,1-.81-.49c-.11-.1-.23-.36-.19-.43s.35-.28.46-.24a9,9,0,0,1,1.5.73c.35.2.27.51,0,.73S976.8,513.33,976.38,513.63Z" transform="translate(-924 -504.32)"/><path class="cls-1" d="M980.78,515.14a5.28,5.28,0,0,1,.8.49c.11.1.22.38.16.47a.55.55,0,0,1-.48.19,10.57,10.57,0,0,1-1.4-.67c-.39-.24-.34-.56,0-.82s.68-.49,1.08-.78c-.44-.35-.84-.67-1.23-1s-.41-.61.06-.88a5.31,5.31,0,0,1,1.25-.54c.2-.06.46.09.69.15a3.42,3.42,0,0,1-.4.52,3.22,3.22,0,0,1-.6.33c.29.32.57.59.82.9.42.51.4.71-.12,1.12Z" transform="translate(-924 -504.32)"/><path class="cls-1" d="M981.21,507.73l-1.22-1c-.44-.37-.44-.63.07-.92a5.15,5.15,0,0,1,1.26-.52c.18-.06.42.07.64.11a2.25,2.25,0,0,1-.36.53,3,3,0,0,1-.64.36c.28.3.57.58.83.89.43.51.4.71-.11,1.13l-.63.51a6.21,6.21,0,0,1,.8.5c.12.09.23.37.18.43s-.35.27-.47.22a9.29,9.29,0,0,1-1.49-.72c-.34-.21-.25-.52,0-.74S980.78,508,981.21,507.73Z" transform="translate(-924 -504.32)"/><path class="cls-1" d="M976.46,509.06c-.29-.31-.57-.59-.82-.9-.42-.51-.39-.72.13-1.13l.62-.49a5.4,5.4,0,0,1-.77-.49c-.12-.11-.15-.32-.23-.48.19-.07.41-.23.56-.18a8.65,8.65,0,0,1,1.34.64c.39.23.38.55,0,.82s-.67.49-1.09.79l1.2,1c.47.4.47.65-.07,1a6.36,6.36,0,0,1-1.33.53c-.15.05-.37-.11-.56-.18a1.83,1.83,0,0,1,.3-.46A4.33,4.33,0,0,1,976.46,509.06Z" transform="translate(-924 -504.32)"/><path class="cls-1" d="M946.32,522.56a1.89,1.89,0,0,0-2.64-1.69,3.22,3.22,0,0,0-1.95,1.9c-.08.16-.23.4-.37.41-.38,0-.41-.26-.3-.53a3.6,3.6,0,0,1,4.43-2.42,2.32,2.32,0,0,1,1.49,2.58c0,.17-.28.31-.42.46-.08-.18-.16-.35-.23-.53A.53.53,0,0,1,946.32,522.56Z" transform="translate(-924 -504.32)"/><path class="cls-1" d="M969.35,574.69a2.25,2.25,0,0,1-2.4-2.54c0-.2.22-.55.36-.56.39,0,.3.31.28.56-.11,1.6,1.31,2,2.37,1.85a2.86,2.86,0,0,0,2.07-1.66,2.45,2.45,0,0,1,.26-.54,1.19,1.19,0,0,1,.42-.22c.06.16.2.35.16.49A3.6,3.6,0,0,1,969.35,574.69Z" transform="translate(-924 -504.32)"/><path class="cls-1" d="M941,530.45c-.37.55-.75,1.1-1.12,1.66s-.54.93-.85,1.37c-.08.11-.34.08-.51.12,0-.16-.09-.35,0-.47.48-.8,1-1.61,1.49-2.38.9-1.29,1.06-1.3,2.19-.25a10.28,10.28,0,0,1,1.08,1.11c.12.16.08.44.12.66-.2-.07-.46-.08-.59-.22-.52-.55-1-1.13-1.49-1.71Z" transform="translate(-924 -504.32)"/><path class="cls-1" d="M946.12,571.75A3.1,3.1,0,0,1,949,574a.48.48,0,0,1-.17.42.56.56,0,0,1-.46-.13,4.92,4.92,0,0,1-.37-.68,1.82,1.82,0,0,0-2.88-.65c-.3.19-.54.48-.85.66a.64.64,0,0,1-.52,0,.48.48,0,0,1,0-.45A3.78,3.78,0,0,1,946.12,571.75Z" transform="translate(-924 -504.32)"/><path class="cls-1" d="M944.17,521.48c.8,0,1.35.47,1.33,1.14a1.25,1.25,0,0,1-1.44,1.16,1.14,1.14,0,0,1-1.11-1.29A1.06,1.06,0,0,1,944.17,521.48Z" transform="translate(-924 -504.32)"/><path class="cls-1" d="M969.78,573.34a1.25,1.25,0,0,1-1.37-1.12,1.29,1.29,0,0,1,1.43-1.19,1.14,1.14,0,0,1,1.14,1.26A1.09,1.09,0,0,1,969.78,573.34Z" transform="translate(-924 -504.32)"/><path class="cls-1" d="M937.26,571.41a3.38,3.38,0,0,1,2.63,2.08.6.6,0,0,1-.21.47c-.06,0-.33-.05-.42-.16-.27-.32-.47-.7-.74-1a1.49,1.49,0,0,0-2.39-.07,5.59,5.59,0,0,1-.51.57.6.6,0,0,1-.5.07c-.09,0-.14-.32-.09-.45A2.94,2.94,0,0,1,937.26,571.41Z" transform="translate(-924 -504.32)"/><path class="cls-1" d="M929.18,571.07a3.45,3.45,0,0,1,1,.65,6.82,6.82,0,0,1,.87,1.62c.06.12-.12.35-.2.53-.16-.11-.38-.17-.47-.32-.22-.38-.34-.81-.58-1.18-.45-.69-1-.72-1.58-.12-.24.26-.4.6-.65.85a.74.74,0,0,1-.51.16c-.06,0-.19-.21-.19-.32A3,3,0,0,1,929.18,571.07Z" transform="translate(-924 -504.32)"/><path class="cls-1" d="M978.53,509a3.34,3.34,0,0,1,2.21,1.82.84.84,0,0,1-.18.52,1.43,1.43,0,0,1-.33.25c-1.46,1-2,1-3.35-.24-.1-.09-.2-.3-.16-.39a3.81,3.81,0,0,1,1.57-1.9A.69.69,0,0,1,978.53,509Zm1.53,1.46,0,0c-.83-1.37-1.71-1.41-2.59-.12a1.72,1.72,0,0,0-.25.46.45.45,0,0,0,.07.36,1.67,1.67,0,0,0,2.41.33l.29-.2C980.4,511.08,980.44,510.8,980.06,510.49Z" transform="translate(-924 -504.32)"/><path class="cls-1" d="M928.93,556.21a10.5,10.5,0,0,1,.68-1,1.61,1.61,0,0,1,.56-.26c0,.21.14.47.05.62a7.92,7.92,0,0,1-1,1.28.57.57,0,0,1-.56.08,12.45,12.45,0,0,1-1.43-1.18c-.13-.12-.07-.44-.09-.66a1.83,1.83,0,0,1,.59.15C928.16,555.55,928.51,555.87,928.93,556.21Z" transform="translate(-924 -504.32)"/><path class="cls-1" d="M946,573.27a1.67,1.67,0,0,1,1.65,1.07.65.65,0,0,1-.21.48c-.05,0-.33-.07-.42-.17-.67-.83-.74-.83-1.61-.15-.15.12-.44.06-.66.08.05-.2.05-.48.18-.59A10.54,10.54,0,0,1,946,573.27Z" transform="translate(-924 -504.32)"/><path class="cls-1" d="M936.55,573.32a2,2,0,0,1,1.83,1.09c0,.14,0,.42-.11.45a.84.84,0,0,1-.5-.09c-.08,0-.12-.16-.18-.23-.49-.6-.8-.61-1.54-.14-.15.1-.4,0-.6.05,0-.21,0-.51.17-.61A6.43,6.43,0,0,1,936.55,573.32Z" transform="translate(-924 -504.32)"/><path class="cls-1" d="M963.62,531c0,.61-.34,1-.78.94a.89.89,0,0,1-.79-1,.78.78,0,0,1,.9-.73A.7.7,0,0,1,963.62,531Z" transform="translate(-924 -504.32)"/><path class="cls-1" d="M928.47,573a1.83,1.83,0,0,1,1.37,1.22c0,.12-.11.34-.21.35a.6.6,0,0,1-.46-.13c-.55-.58-.54-.58-1.22-.09a.5.5,0,0,1-.47,0c-.09-.08-.15-.39-.09-.45C927.73,573.57,928.11,573.28,928.47,573Z" transform="translate(-924 -504.32)"/><path class="cls-1" d="M957.68,531.29c-.15.12-.36.41-.63.48s-1-.46-.84-.72a1.37,1.37,0,0,1,.81-.71C957.45,530.27,957.64,530.68,957.68,531.29Z" transform="translate(-924 -504.32)"/><path class="cls-1" d="M977.65,520.32c-.4.28-.68.6-.84.55s-.48-.41-.72-.64c.24-.21.46-.55.71-.58S977.26,520,977.65,520.32Z" transform="translate(-924 -504.32)"/><path class="cls-1" d="M936.52,576a5.16,5.16,0,0,1-.56-1c0-.08.35-.41.43-.38.32.14,1-.07.89.54C937.26,575.39,936.88,575.61,936.52,576Z" transform="translate(-924 -504.32)"/><path class="cls-1" d="M978.18,525c-.38.3-.65.63-.78.58a2.56,2.56,0,0,1-.76-.61c.22-.21.43-.56.68-.6S977.78,524.74,978.18,525Z" transform="translate(-924 -504.32)"/><path class="cls-1" d="M960.44,536.67c-.33.31-.52.64-.73.65s-.38-.35-.57-.54c.18-.17.34-.43.55-.48S960.09,536.49,960.44,536.67Z" transform="translate(-924 -504.32)"/><path class="cls-1" d="M961.32,539.31c-.32.25-.56.57-.71.54s-.38-.37-.57-.57c.2-.16.39-.42.61-.44S961,539.08,961.32,539.31Z" transform="translate(-924 -504.32)"/><path class="cls-1" d="M955.7,540.15c-.28-.33-.57-.52-.58-.73s.29-.45.5-.49.52.25.52.37A2.75,2.75,0,0,1,955.7,540.15Z" transform="translate(-924 -504.32)"/><path class="cls-1" d="M958.88,539c-.34.3-.53.59-.75.62s-.47-.32-.49-.52.29-.44.5-.49S958.53,538.76,958.88,539Z" transform="translate(-924 -504.32)"/><path class="cls-1" d="M956.91,537.81c-.24-.39-.49-.63-.48-.86s.34-.4.55-.42.48.3.46.43S957.17,537.42,956.91,537.81Z" transform="translate(-924 -504.32)"/><path class="cls-1" d="M987.65,520.67c.24.36.49.56.48.75s-.32.44-.47.43a.76.76,0,0,1-.54-.45C987.1,521.23,987.38,521,987.65,520.67Z" transform="translate(-924 -504.32)"/><path class="cls-1" d="M988.17,526.14c-.18.13-.38.38-.54.36s-.42-.27-.62-.42c.17-.17.33-.45.53-.49s.41.19.62.31Z" transform="translate(-924 -504.32)"/><path class="cls-1" d="M988.3,525.34c-.24-.32-.54-.55-.5-.69a.72.72,0,0,1,.55-.45c.16,0,.41.31.45.51S988.55,525.05,988.3,525.34Z" transform="translate(-924 -504.32)"/><path class="cls-1" d="M987.56,524.15c-.25-.32-.55-.54-.51-.69a.73.73,0,0,1,.54-.45c.16,0,.42.3.47.51S987.81,523.85,987.56,524.15Z" transform="translate(-924 -504.32)"/><path class="cls-1" d="M989.17,522.64c-.39.21-.61.44-.78.4s-.37-.3-.56-.46c.19-.16.38-.43.58-.45S988.8,522.38,989.17,522.64Z" transform="translate(-924 -504.32)"/><path class="cls-1" d="M989.18,529.5c-.33.22-.53.46-.69.44s-.4-.27-.6-.42c.19-.18.37-.44.6-.51S988.85,529.25,989.18,529.5Z" transform="translate(-924 -504.32)"/><path class="cls-1" d="M968.92,527c.2.32.42.52.39.67a.6.6,0,0,1-.45.38c-.16,0-.46-.27-.44-.39S968.67,527.27,968.92,527Z" transform="translate(-924 -504.32)"/><path class="cls-1" d="M986.08,547.37c-.31.24-.49.48-.67.48s-.38-.31-.38-.48.26-.39.42-.41S985.78,547.16,986.08,547.37Z" transform="translate(-924 -504.32)"/><path class="cls-1" d="M969,539.59c-.22-.26-.5-.48-.46-.58a.71.71,0,0,1,.49-.42c.12,0,.36.27.39.45S969.23,539.34,969,539.59Z" transform="translate(-924 -504.32)"/><path class="cls-1" d="M936.2,544.73c-.18.1-.37.3-.53.28s-.33-.25-.5-.38c.17-.15.32-.39.52-.43s.34.2.51.31Z" transform="translate(-924 -504.32)"/><path class="cls-1" d="M985.48,544.19c.21.35.42.54.4.7s-.24.33-.37.5c-.16-.16-.4-.31-.44-.5S985.26,544.54,985.48,544.19Z" transform="translate(-924 -504.32)"/><path class="cls-1" d="M992.69,544.9c.19.3.4.47.39.64s-.29.41-.38.38-.36-.27-.53-.41Z" transform="translate(-924 -504.32)"/><path class="cls-1" d="M981,545c-.31.25-.48.49-.66.5s-.38-.28-.39-.44a.61.61,0,0,1,.39-.45C980.47,544.59,980.66,544.81,981,545Z" transform="translate(-924 -504.32)"/><path class="cls-1" d="M990.12,546.75c-.23-.29-.47-.47-.45-.62a.44.44,0,0,1,.88,0C990.56,546.29,990.33,546.47,990.12,546.75Z" transform="translate(-924 -504.32)"/><path class="cls-1" d="M987.19,564.31c-.2.1-.42.29-.61.27s-.27-.3-.4-.46c.17-.13.33-.34.51-.35s.34.2.51.31Z" transform="translate(-924 -504.32)"/><path class="cls-1" d="M989.51,536.56l0,0a.59.59,0,0,1-.29,0c-.19-.06-.49-.12-.53-.24s.1-.41.16-.62l0,0C989.39,535.71,989.58,536,989.51,536.56Z" transform="translate(-924 -504.32)"/><path class="cls-1" d="M928.51,574.35c.21.29.45.55.42.58a2,2,0,0,1-.61.48c-.05,0-.35-.26-.33-.31A5.49,5.49,0,0,1,928.51,574.35Z" transform="translate(-924 -504.32)"/><path class="cls-1" d="M947.1,575.22a5.92,5.92,0,0,1-.73.57s-.34-.29-.33-.3a4.13,4.13,0,0,1,.6-.65A3.88,3.88,0,0,1,947.1,575.22Z" transform="translate(-924 -504.32)"/><path class="cls-1" d="M981,547.45c-.28.23-.49.49-.6.46a.72.72,0,0,1-.43-.5c0-.11.27-.39.43-.4S980.75,547.24,981,547.45Z" transform="translate(-924 -504.32)"/><path class="cls-1" d="M993.08,536c-.35.18-.55.37-.71.34s-.31-.27-.46-.41c.17-.14.32-.37.5-.39S992.75,535.71,993.08,536Z" transform="translate(-924 -504.32)"/><path class="cls-1" d="M990.31,542.3c-.35.2-.54.4-.7.38s-.31-.26-.47-.4c.16-.14.31-.38.48-.39S990,542.08,990.31,542.3Z" transform="translate(-924 -504.32)"/><path class="cls-1" d="M991.14,537.84c-.18.08-.38.27-.54.23s-.3-.27-.45-.41c.17-.14.33-.36.51-.38s.33.22.5.34Z" transform="translate(-924 -504.32)"/><path class="cls-1" d="M990.93,533.38c.2.33.4.51.39.68s-.28.39-.39.37a.65.65,0,0,1-.47-.39C990.43,533.9,990.68,533.71,990.93,533.38Z" transform="translate(-924 -504.32)"/><path class="cls-1" d="M927.3,535.31c-.18.08-.38.27-.54.23s-.31-.26-.46-.41c.17-.14.33-.36.51-.38s.33.21.5.33Z" transform="translate(-924 -504.32)"/><path class="cls-1" d="M990,549.81c-.23-.3-.48-.49-.45-.62a.64.64,0,0,1,.46-.4.6.6,0,0,1,.42.41C990.47,549.34,990.24,549.52,990,549.81Z" transform="translate(-924 -504.32)"/><path class="cls-1" d="M992.75,542.63l-.55-.58a1.62,1.62,0,0,1,.51-.44c.08,0,.37.22.39.37S992.93,542.32,992.75,542.63Z" transform="translate(-924 -504.32)"/><path class="cls-1" d="M932.05,534.91c-.32.22-.49.44-.63.42s-.36-.23-.54-.35c.15-.16.29-.4.46-.44S931.7,534.71,932.05,534.91Z" transform="translate(-924 -504.32)"/><path class="cls-1" d="M945.13,512.34c-.1-.18-.3-.36-.29-.53s.24-.29.38-.44c.13.14.37.26.38.4s-.15.38-.24.56Z" transform="translate(-924 -504.32)"/><path class="cls-1" d="M940.25,518.68c-.3.2-.5.44-.63.41a.65.65,0,0,1-.36-.49c0-.11.27-.34.42-.35S940,518.46,940.25,518.68Z" transform="translate(-924 -504.32)"/><path class="cls-1" d="M993.09,549.52c-.19.09-.38.26-.55.24s-.28-.26-.42-.4c.16-.14.31-.37.48-.39s.34.2.5.32Z" transform="translate(-924 -504.32)"/><path class="cls-1" d="M938.8,504.32c.2.29.41.47.39.61s-.25.33-.39.5c-.13-.16-.35-.31-.38-.5S938.6,504.62,938.8,504.32Z" transform="translate(-924 -504.32)"/><path class="cls-1" d="M933,512.84c-.11-.18-.29-.36-.29-.54a.54.54,0,0,1,.38-.38.56.56,0,0,1,.39.37c0,.17-.17.36-.26.55Z" transform="translate(-924 -504.32)"/><path class="cls-1" d="M956.73,565.06c-.15-.22-.33-.38-.31-.47s.22-.26.34-.39c.12.11.33.22.32.32S956.9,564.81,956.73,565.06Z" transform="translate(-924 -504.32)"/><path class="cls-1" d="M960.11,563.44c.14.27.29.42.26.53s-.21.24-.32.36c-.11-.11-.32-.23-.31-.34S959.92,563.71,960.11,563.44Z" transform="translate(-924 -504.32)"/><path class="cls-2" d="M977.85,573.86c-.09-.53-.22-1.05-.27-1.58a.6.6,0,0,0-.56-.59c-.41-.08-.81-.19-1.38-.32a12.81,12.81,0,0,0,1.23-.5,4,4,0,0,0,.63-.47,4.9,4.9,0,0,0-.57-.45c-.54-.32-1.11-.6-1.67-.9l0-.18c.76-.07,1.51-.15,2.27-.19s.93-.26,1-.91c.06-.35.1-.71.18-1.25a8.33,8.33,0,0,0,.39.88c.09.16.24.38.38.4s.32-.17.43-.31c.25-.33.47-.68.79-1.14.15.81.3,1.47.4,2.13.06.42.19.64.65.69a9.45,9.45,0,0,1,1.32.32l-.88.7c.31.24.6.48.92.7s.5.31.75.46l0,.2h-3c-.65,0-.71.09-.63.74s.08,1.11.12,1.67l-.15.06c-.27-.42-.52-.84-.79-1.26-.1-.14-.25-.35-.36-.34a.7.7,0,0,0-.43.33c-.24.36-.42.76-.63,1.15Zm2.22-4.39-.61-.91-.52,1c-.22.29-1-.08-.91.59s.69.15,1.07.27a3.81,3.81,0,0,0,0,.83,2,2,0,0,0,.34.57c.13-.16.32-.31.37-.5a7.06,7.06,0,0,0,.1-1l.59,0c.3,0,.74.06.7-.42s-.47-.3-.76-.31Z" transform="translate(-924 -504.32)"/><path class="cls-2" d="M989.06,569.58a1.89,1.89,0,0,1,.58-1.57,1.31,1.31,0,0,1,2,0,3.25,3.25,0,0,1,0,4.4.92.92,0,0,1-1.46,0A3.72,3.72,0,0,1,989.06,569.58Z" transform="translate(-924 -504.32)"/><path class="cls-2" d="M929.44,552.19c-1-.25-1.89-.45-2.77-.7a2.24,2.24,0,0,1-.78-.44,4.37,4.37,0,0,1-.94-4.28,3.64,3.64,0,0,1,3.19-2.17c2.18,0,5,2.71,5.06,4.86a1.84,1.84,0,0,1-1.09,1.91A24.08,24.08,0,0,1,929.44,552.19Zm-1.76-3.46c-.41.59-.8,1.12-1.14,1.67-.08.13,0,.38,0,.57a2.53,2.53,0,0,0,.55-.18c.12-.08.15-.28.25-.4l.86-1.07c.15.69.24,1.19.36,1.7.06.27.16.61.53.46.13-.06.2-.42.18-.62-.08-.6-.21-1.2-.33-1.81a1.12,1.12,0,0,1,1.23.61c.21.36.3.79.51,1.15.09.16.33.24.5.36.06-.19.22-.39.18-.55a2.84,2.84,0,0,0-1.82-2.3,2.8,2.8,0,0,0,.24-.36c.25-.63.49-1.26.7-1.9,0-.1-.15-.4-.22-.39a.65.65,0,0,0-.46.24c-.1.13-.08.35-.13.52a2.28,2.28,0,0,1-.9,1.44c-.06-.61-.07-1.14-.16-1.66,0-.21-.22-.54-.35-.55-.38,0-.39.3-.37.6q.06.87.12,1.77c-.67-.21-.82-.39-1.37-1.45-.08-.16-.33-.24-.5-.35,0,.22-.2.47-.14.65A3,3,0,0,0,927.68,548.73Z" transform="translate(-924 -504.32)"/><path class="cls-2" d="M974.72,535.66l4-4.49A16.32,16.32,0,0,0,984,534.8l-4,5.13Zm4.73-2.29a2.28,2.28,0,0,0-.43.1,4.38,4.38,0,0,0-1.87,2,.57.57,0,0,0,.13.5c.81.57,1.64,1.12,2.49,1.64a.55.55,0,0,0,.53-.06c.63-.76,1.23-1.55,1.82-2.35a.47.47,0,0,0-.06-.45C981.17,534.23,980.26,533.78,979.45,533.37Z" transform="translate(-924 -504.32)"/><path class="cls-2" d="M980.47,554.43c-.41-.88-.81-1.58-1.08-2.34a.84.84,0,0,1,.77-1.16,1.54,1.54,0,0,1,1.66.54,1.34,1.34,0,0,1-.21,1.66C981.32,553.53,981,553.88,980.47,554.43Zm.87-1.76v-.27c-.23-.15-.44-.39-.68-.43a.5.5,0,0,0-.59.57c0,.35.16.73.58.66C980.91,553.15,981.11,552.86,981.34,552.67Z" transform="translate(-924 -504.32)"/><path class="cls-2" d="M980.58,556.29a20.68,20.68,0,0,1,1,2.32c.22.73-.15,1.13-.91,1.2a1.51,1.51,0,0,1-1.56-.66,1.32,1.32,0,0,1,.26-1.55C979.7,557.19,980.08,556.84,980.58,556.29Zm.58,2c-.41-.27-.63-.52-.87-.54a.5.5,0,0,0-.57.59c0,.36.18.74.59.66S980.77,558.67,981.16,558.33Z" transform="translate(-924 -504.32)"/><path class="cls-2" d="M958.65,516.34a.83.83,0,1,1,0-1.63.82.82,0,1,1,0,1.63Z" transform="translate(-924 -504.32)"/><path class="cls-2" d="M959.77,524.93a.88.88,0,0,1-.93.81.91.91,0,0,1-1-.78.89.89,0,0,1,1-.83A.86.86,0,0,1,959.77,524.93Z" transform="translate(-924 -504.32)"/><path class="cls-2" d="M962.52,545.85a4,4,0,0,1-4.6,1.93,10.63,10.63,0,0,1-2.18-1.23c-.67-.48-.58-.85.18-1.16a5.21,5.21,0,0,0,.5-.2c2.09-1.18,4-.51,5.93.52A2.09,2.09,0,0,1,962.52,545.85Zm-1.24.12c-.92-.29-1.71-1-2.76-.78a14.75,14.75,0,0,0-1.7.57c-.42.14-.43.43-.13.66a6.88,6.88,0,0,0,1.32.81A2.56,2.56,0,0,0,961.28,546Z" transform="translate(-924 -504.32)"/><path class="cls-2" d="M943.43,511.27l-4.2,4.84-4.12-3.93a15.27,15.27,0,0,0,3.61-4.87Zm-6.21.28a1.71,1.71,0,0,0,.09.43,4,4,0,0,0,1.76,1.81.58.58,0,0,0,.55-.16c.54-.69,1-1.4,1.52-2.13a.71.71,0,0,0-.06-.68c-.63-.59-1.31-1.14-2-1.67-.11-.09-.46-.08-.51,0C938.08,510,937.63,510.81,937.22,511.55Z" transform="translate(-924 -504.32)"/><path class="cls-2" d="M935.48,555.25a4.71,4.71,0,0,0,2.45-1.93.73.73,0,0,1,1.27-.07,10.89,10.89,0,0,1,1.32,1.7,1,1,0,0,1-.06.88,8.2,8.2,0,0,1-1.08,1.35c-.65.68-1.12.66-1.65-.11A4.28,4.28,0,0,0,935.48,555.25Zm3.69.08c-.28-.21-.45-.44-.6-.43s-.44.29-.42.41a.74.74,0,0,0,.42.49C938.68,555.83,938.89,555.56,939.17,555.33Z" transform="translate(-924 -504.32)"/><path class="cls-2" d="M946.59,555.43a4.51,4.51,0,0,0-2.37,1.85c-.49.63-.94.64-1.49,0a8,8,0,0,1-1.11-1.47,1,1,0,0,1,0-.88,9.16,9.16,0,0,1,1.27-1.58c.56-.55,1-.49,1.49.18A4.3,4.3,0,0,0,946.59,555.43Zm-3.09-.68c-.22.35-.44.55-.41.7s.27.33.42.5c.14-.16.36-.32.38-.5S943.71,555.1,943.5,554.75Z" transform="translate(-924 -504.32)"/><path class="cls-2" d="M971.72,564.13c.44,1.06-.61,1.33-1,1.94-.17.25-1.63,0-1.86-.28,0,0-.07-.11-.12-.13-1-.53-.61-1.49-.72-2.28,0-.16.29-.34.42-.53a1.69,1.69,0,0,1,1.76-.77,1.3,1.3,0,0,1,.86.39C971.47,563,972.05,563.35,971.72,564.13Zm-1.59.84c.29-.37.57-.58.6-.82a.55.55,0,0,0-.59-.66c-.43,0-.85.32-.73.66S969.79,564.6,970.13,565Z" transform="translate(-924 -504.32)"/><path class="cls-2" d="M972.39,563.64l1.36.47-1.36.46Z" transform="translate(-924 -504.32)"/><path class="cls-2" d="M967.38,564.56l-1.33-.45,1.33-.46Z" transform="translate(-924 -504.32)"/><path class="cls-2" d="M967.85,562.58l-.7-1.36,1.32.71Z" transform="translate(-924 -504.32)"/><path class="cls-2" d="M971.27,566.27l.69-.61.63,1.29Z" transform="translate(-924 -504.32)"/><path class="cls-2" d="M967.89,565.62l.52.61-.84.35Z" transform="translate(-924 -504.32)"/><path class="cls-2" d="M969.53,561.46l.37-.86.37.86Z" transform="translate(-924 -504.32)"/><path class="cls-2" d="M969.91,567.62l-.39-.89.75,0Z" transform="translate(-924 -504.32)"/><path class="cls-2" d="M959.76,509.21l.19-.33a1.56,1.56,0,0,1,2-.68.54.54,0,0,1,.23.24c.18.28.33.59.51.88s.36.57.54.85c-.82.58-1,.58-1.84.06Zm2.47.05c-.35-.22-.55-.45-.69-.42s-.33.29-.5.45c.17.13.33.34.51.36S961.89,509.46,962.23,509.26Z" transform="translate(-924 -504.32)"/><path class="cls-2" d="M964,510l-1.14-1.79,4.05.23,0,.15Z" transform="translate(-924 -504.32)"/><path class="cls-2" d="M959.37,509.76l2,1.22L958,512.33Z" transform="translate(-924 -504.32)"/><path class="cls-2" d="M959.16,508.86l-1.55-.78h2Z" transform="translate(-924 -504.32)"/><path class="cls-2" d="M962.83,511.15l.84-.35.77,1.17-.08.11Z" transform="translate(-924 -504.32)"/><path class="cls-2" d="M961.74,507.45h-.82l.56-.86Z" transform="translate(-924 -504.32)"/><path class="cls-2" d="M974.79,548.67l-5.3.28,0-.22c.46-.23.94-.43,1.39-.68a3.41,3.41,0,0,0,.58-.5,3.79,3.79,0,0,0-.62-.35,8,8,0,0,1-1.26-.49,9.6,9.6,0,0,0,1.05-.29c.13-.06.31-.23.32-.35s-.19-.27-.33-.33c-.56-.25-1.13-.47-1.7-.7v-.18a2.38,2.38,0,0,1,.5-.15l4.85,0s.1,0,.24.06a8,8,0,0,0-.65.59c-.1.1-.24.3-.2.38a.64.64,0,0,0,.4.29c.42.1.86.15,1.42.25-.52.49-1,.89-1.41,1.32a2.69,2.69,0,0,0-.34.57c.18.08.37.18.56.25a3.69,3.69,0,0,0,.56.11Zm-2-3.08c-.33-.25-.52-.49-.66-.46s-.36.26-.54.41c.16.14.3.37.48.4S972.38,545.78,972.74,545.59Zm0,1.26c-.36-.2-.56-.42-.71-.38s-.32.29-.48.45c.17.13.33.34.51.36S972.35,547.08,972.69,546.85Zm.12,1.47v-.23c-.17-.11-.37-.32-.51-.29s-.34.29-.51.44c.17.13.33.35.51.37S972.64,548.42,972.81,548.32Z" transform="translate(-924 -504.32)"/><path class="cls-2" d="M974.18,542l-1.92,1.58-1.07-1.72h2.93Zm-.95.37c-.35-.21-.56-.44-.69-.4s-.34.3-.5.46c.17.13.34.35.52.37S972.9,542.6,973.23,542.37Z" transform="translate(-924 -504.32)"/><path class="cls-2" d="M934.51,530.4c-1.74,0-2.45-.72-2.34-2.19a8.17,8.17,0,0,1,1.14-3.24.45.45,0,0,1,.2-.21,4.77,4.77,0,0,1,5.1,1,1.67,1.67,0,0,1,.17,2.54A6.27,6.27,0,0,1,934.51,530.4Zm.79-2.11c.92,0,1.89-.77,1.85-1.46s-1.14-1.41-1.9-1.36c-.26,0-.93,1.42-.93,1.93A.88.88,0,0,0,935.3,528.29Z" transform="translate(-924 -504.32)"/><path class="cls-2" d="M950,546.56a7.5,7.5,0,0,0-1.39-1,1.72,1.72,0,0,0-2.14,1.23,1.69,1.69,0,0,0,1.26,1.75c.46.12,1.21-.49,1.3-1.08.05-.36-.33-.7-.85-.75s-.72.27-.57.65a.57.57,0,0,0,.28.25s.19-.08.18-.1a2.83,2.83,0,0,0-.17-.47c.24.1.57.18.57.25a1.05,1.05,0,0,1-.24.64c-.1.11-.44.19-.5.12-.31-.32-.72-.67-.77-1.05s.37-.69.67-.93a.84.84,0,0,1,1.15.12c.5.47,1.08.95,1,1.71s-.88,1-1.54,1.16c-1.31.36-2-.16-2-1.52a6.21,6.21,0,0,1,0-1.14,1.15,1.15,0,0,1,.32-.74c.7-.43,1.27-1.07,2.24-1.07,2,0,2.1,0,2.48,2a2.1,2.1,0,0,1-.11,1.81h0c0-.21.05-.56,0-.59a2.61,2.61,0,0,0-.81-.1c-.08-.33-.19-.76-.3-1.19.06.05.14.14.19.13.21,0,.51,0,.6-.18a.78.78,0,0,0,0-.65.52.52,0,0,0-.49-.11,1.64,1.64,0,0,0-.32.6C950,546.39,950,546.48,950,546.56Z" transform="translate(-924 -504.32)"/><path class="cls-2" d="M946.6,544.91c-1.26,1-1.22,3.56,0,4.74,0,0-.07,0-.1,0-2.1,0-2.38-.22-2.38-2.31C944.15,544.84,944.33,545.28,946.6,544.91Zm-1.05,1.45c-.32-.23-.51-.48-.68-.47s-.48.31-.46.44.27.4.43.6Zm-.66,2.61h.24c.12-.22.34-.44.33-.64s-.29-.34-.44-.5c-.17.16-.46.32-.47.5S944.77,548.75,944.89,549Z" transform="translate(-924 -504.32)"/><path class="cls-2" d="M951.15,548.42c.19.48-.16.68-.49.78-.64.19-1.3.3-1.87.42l1.54-1.2a2.84,2.84,0,0,0,.49.31c.06,0,.22-.2.34-.31Z" transform="translate(-924 -504.32)"/><path class="cls-2" d="M928.51,536.31l.61-1.86a6.07,6.07,0,0,0,1.84,3.43,1.27,1.27,0,0,1,.11,1.85c-.59.82-1.28,1.56-2,2.41-.69-.8-1.37-1.51-1.94-2.28a1.4,1.4,0,0,1,.11-2c.42-.52.86-1,1.29-1.55,0,.1,0,.28.1.31a4.56,4.56,0,0,0,.72.21l.12-.57a4.07,4.07,0,0,0-.67-.11C928.7,536.13,928.61,536.25,928.51,536.31Zm.57,1.39c-.25.27-.5.43-.5.58a.44.44,0,0,0,.88.07C929.49,538.21,929.27,538,929.08,537.7Zm.63,2.65v-.22c-.17-.11-.36-.33-.51-.31s-.34.26-.5.4c.16.14.3.37.48.4S929.53,540.45,929.71,540.35Z" transform="translate(-924 -504.32)"/><path class="cls-2" d="M989.12,508.24h2.16a2,2,0,0,1-2.27,2.05c0-.14,0-.3,0-.45C989.05,509.33,989.08,508.81,989.12,508.24Zm.63,1.46c.19-.3.42-.48.39-.63s-.3-.43-.42-.41a.75.75,0,0,0-.47.45C989.21,509.22,989.5,509.42,989.75,509.7Z" transform="translate(-924 -504.32)"/><path class="cls-2" d="M988.45,508.26l-.15,1.94a3.38,3.38,0,0,1-1.84-1.94Zm-.14.7c-.33-.24-.52-.49-.66-.46s-.35.27-.53.42c.16.14.3.38.48.41S988,509.15,988.31,509Z" transform="translate(-924 -504.32)"/><path class="cls-2" d="M951.85,510.46c-1.23,1.35-2,.93-3.27.09a23.28,23.28,0,0,1-.45-2.47,1.73,1.73,0,0,1,.84-1.51,1.2,1.2,0,0,1,1.46-.13A10.09,10.09,0,0,1,951.9,508c.2.23.09.49-.23.6a2.75,2.75,0,0,1-2.06,0,7.17,7.17,0,0,0,.94-.73c.13-.12.14-.35.2-.54-.17,0-.4-.09-.52,0a4.48,4.48,0,0,0-1,.82.65.65,0,0,0,.32,1.13,3.13,3.13,0,0,0,2.67-.2c.52-.29.62-.78.36-1.41a3.93,3.93,0,0,0-2.69-2.2,2.11,2.11,0,0,1,.85.12c.95.55,1.86,1.17,2.8,1.74.39.25.46.56.19.9-.57.73-1.18,1.43-1.77,2.14.06-.32.12-.69-.34-.71-.18,0-.54.24-.54.38,0,.47.36.48.72.43Zm-.87,0c-.34-.22-.55-.45-.69-.41s-.33.29-.5.45c.17.13.33.35.51.37S950.65,510.68,951,510.46Zm-1.66.11c.2-.32.41-.51.38-.66a.6.6,0,0,0-.44-.39c-.16,0-.46.26-.45.38S949.06,510.26,949.32,510.57Z" transform="translate(-924 -504.32)"/><path class="cls-2" d="M947.46,509.76c-.36-.55-.76-1.08-1.07-1.66a.68.68,0,0,1,.31-1c.45-.26.89-.54,1.38-.8a3.84,3.84,0,0,0-.46,3.34Z" transform="translate(-924 -504.32)"/><path class="cls-1" d="M951.85,510.46h-.06c-.36.05-.74,0-.72-.43,0-.14.36-.39.54-.38.46,0,.4.39.34.71Z" transform="translate(-924 -504.32)"/><path class="cls-2" d="M948.73,563.48c-.32-.43-.6-.89-1-1.29a1.48,1.48,0,0,0-2.18-.23,2,2,0,0,0-.34,2.62,1.63,1.63,0,0,0,2.16.29,1,1,0,0,0,.37-1.39c-.31-.65-.85-1-1.36-.77-.23.1-.52.34-.55.55a1,1,0,0,0,.29.77,1,1,0,0,0,.78.07c.09,0,.18-.53.1-.6a2.08,2.08,0,0,0-.77-.18c.08-.07.28-.29.31-.27a2.81,2.81,0,0,1,.78.71c.18.31-.05.59-.38.67s-.92.27-1.25-.22a1.45,1.45,0,0,1,.12-1.73,1,1,0,0,1,1.35-.06,2.73,2.73,0,0,1,1.22,2.28c0,.15-.23.43-.39.47a9.51,9.51,0,0,1-1.83.27,1.48,1.48,0,0,1-.84-.39,6.78,6.78,0,0,1-.81-.92,2.11,2.11,0,0,0-.08.58,1.62,1.62,0,0,0,1.65,1.3,13.49,13.49,0,0,0,1.77-.26l.67-.15c-.91,1.2-1.77,1.44-2.93.63a12.11,12.11,0,0,1-2.37-2.15c-.62-.72-.47-1.2.36-1.67s1.73-.9,2.61-1.33a1.19,1.19,0,0,1,1.24.13c.74.51,1.51,1,2.26,1.47-.77-.06-1,.13-1,.83Zm-4-.2c-.38-.32-.63-.69-.83-.67s-.46.39-.69.6c.23.21.44.51.71.59S944.36,563.54,944.74,563.28Z" transform="translate(-924 -504.32)"/><path class="cls-2" d="M949.76,562.69c.65.41.68.49.3,1.12-.29.46-.62.89-.95,1.35l-.38-1.68,0,0c.08.06.14.16.23.18s.61.21.73.1.17-.5.21-.77C949.89,562.92,949.8,562.8,949.76,562.69Z" transform="translate(-924 -504.32)"/><path class="cls-1" d="M949.76,562.69c0,.11.13.23.12.33,0,.27,0,.62-.21.77s-.49,0-.73-.1-.15-.12-.23-.18c0-.7.25-.89,1-.83Z" transform="translate(-924 -504.32)"/><path class="cls-2" d="M954,556.25v-1.7a5.48,5.48,0,0,1,4.87,1.7Z" transform="translate(-924 -504.32)"/><path class="cls-2" d="M952.3,556.91c.84,0,1.63,0,2.43,0a.39.39,0,0,1,.28.15.9.9,0,0,1-.72,1.27c-.72-.05-1.44-.17-2.21-.27Z" transform="translate(-924 -504.32)"/><path class="cls-2" d="M963.49,557.68a6,6,0,0,0-.75-.25c-.32-.07-.36-.26-.35-.56,0-.62,0-1.24,0-1.85s.55-.5.92-.93Z" transform="translate(-924 -504.32)"/><path class="cls-2" d="M951.47,557.66l-1.25-.93,1.44-1.26v2.12Z" transform="translate(-924 -504.32)"/><path class="cls-2" d="M961.36,555.41v1.42c-.12,0-.16,0-.19,0l-1.23-.62,1.25-1Z" transform="translate(-924 -504.32)"/><path class="cls-2" d="M958.29,557c-.49.27-.81.46-1.14.63s-.5.22-.8.35v-1Z" transform="translate(-924 -504.32)"/><path class="cls-2" d="M952.12,555.26l.7-.38c0,.46,0,.81,0,1.16,0,.09-.19.22-.31.24s-.21-.14-.24-.24A7.82,7.82,0,0,1,952.12,555.26Z" transform="translate(-924 -504.32)"/><path class="cls-2" d="M955.47,558.21v-1.42c.22.18.43.27.43.37C955.9,557.53,956,558,955.47,558.21Z" transform="translate(-924 -504.32)"/><path class="cls-2" d="M953.65,554.58l-.15,1.68C953.17,555.71,953.21,554.85,953.65,554.58Z" transform="translate(-924 -504.32)"/><path class="cls-2" d="M961.94,555.06v2h-.15v-2Z" transform="translate(-924 -504.32)"/><path class="cls-2" d="M969.4,519.94c-.18,1.21-.31,2.38-.54,3.53-.18.91-.61,1.22-1.55,1.29a7.74,7.74,0,0,1-3.62-.64,1.12,1.12,0,0,1-.56-.86c0-1.39.15-2.78.28-4.17.05-.53.22-1.06.28-1.59a.77.77,0,0,1,.72-.76c1.37,0,2.74,0,4.11,0,.16,0,.42.32.46.53C969.16,518.15,969.27,519.06,969.4,519.94Zm-2-.4.28-.19c1.5-1,.74-1.21-.22-1.81a1.9,1.9,0,0,0-2.56.27c-.78.66-.82.73-.19,1.5a3.34,3.34,0,0,1,.25.34l-.48.28c-.61.4-.62.63-.09,1.09l.91.79c-.33.29-.61.51-.87.75a.45.45,0,0,0,.06.79c.3.19.65.31.94.52.8.59,1.47.32,2.19-.21.94-.72,1-.77.23-1.71,0-.05-.07-.12-.13-.21l.44-.25c.68-.41.7-.63.12-1.15Z" transform="translate(-924 -504.32)"/><path class="cls-2" d="M930.28,506.32a2.3,2.3,0,0,1,1.19,3.2,3.07,3.07,0,0,1-2.79,1.56,2.71,2.71,0,0,1-2.56-1.47,1.66,1.66,0,0,1,.11-2.05,4.73,4.73,0,0,0,1.68,2.69,1.51,1.51,0,0,0,2.25-.11,2.12,2.12,0,0,0-.08-2.74,1.74,1.74,0,0,0-2.3.16c-.43.42-.39,1,.11,1.59s1.09.67,1.51.22a.92.92,0,0,0,.23-.81,1.58,1.58,0,0,0-.81-.57c-.09,0-.37.21-.44.38s0,.46.15.5a1.88,1.88,0,0,0,.74,0c-.06.08-.17.32-.23.31a1.21,1.21,0,0,1-.72-.27,1,1,0,0,1-.2-.79c.12-.41,1.15-.58,1.49-.3a1.62,1.62,0,0,1,.23,1.84c-.35.52-.86.57-1.54.22a2.88,2.88,0,0,1-1.39-2.13.64.64,0,0,1,.34-.51,5,5,0,0,1,1.84-.49c.48,0,.94.47,1.42.73l.42.22c0-.16,0-.36,0-.48C930.72,506.89,930.49,506.62,930.28,506.32Z" transform="translate(-924 -504.32)"/><path class="cls-2" d="M949.23,533.9c.81,0,1.34.62,1.34,1.57,0,.74-.58,1.23-1.45,1.24s-1.73-.57-1.72-1.35S948.13,533.9,949.23,533.9Zm-.39,2h.28c.16-.22.41-.43.46-.67a.49.49,0,0,0-.55-.6c-.35,0-.74.13-.68.56C948.38,535.43,948.67,535.65,948.84,535.88Z" transform="translate(-924 -504.32)"/><path class="cls-2" d="M936.09,564a1.16,1.16,0,0,0-1.6.82.37.37,0,0,0,.14.29.63.63,0,0,0,.43,0,2.67,2.67,0,0,0,.46-.41c.36.23.7.61,1.06.63s.8-.28,1.26-.47l.5.74a9.65,9.65,0,0,1-4-.43.72.72,0,0,1-.38-.51,20.23,20.23,0,0,1,.22-2.2c.07-.49.33-.73.91-.71,1.17,0,2.35,0,3.52,0,.85,0,1,.18,1.1,1a9,9,0,0,1,.08,1.79c0,.69-.34.91-1,1,.05-.63-.12-1.36-.68-1.51s-1,.37-1.59.62l-.43-.65a1,1,0,0,0,.2.11c.23,0,.52.15.68.06s.2-.42.15-.61-.35-.37-.45-.33a1.69,1.69,0,0,0-.48.51A1.07,1.07,0,0,0,936.09,564Zm.77-1.33.48.53c.68.77,1,.77,1.53-.08a2.23,2.23,0,0,0,.17-.75l-.74.29a2.06,2.06,0,0,0-.25.22c-.63-.72-1.29-1.33-2.16-.31a2.36,2.36,0,0,0-.39-.54,1.91,1.91,0,0,0-.51-.17,1.4,1.4,0,0,0-.08.52,3,3,0,0,0,.32.64.57.57,0,0,0,1,.17C936.4,563,936.61,562.83,936.86,562.63Z" transform="translate(-924 -504.32)"/><path class="cls-2" d="M989.51,536.56c.07-.54-.12-.85-.72-.76l1.08-.79.52.74Z" transform="translate(-924 -504.32)"/><path class="cls-2" d="M992,516.66a1.83,1.83,0,0,1,.45,3.15A2.44,2.44,0,0,1,992,516.66Zm1,1.24c-.33-.19-.56-.43-.71-.38s-.36.32-.53.5c.19.17.37.47.56.48S992.71,518.19,993,517.9Z" transform="translate(-924 -504.32)"/><path class="cls-2" d="M985.62,515.68l-.39,1.77L983.92,515l2.33-.86-.64,1.59c-.06-.1-.09-.26-.17-.3a1,1,0,0,0-.61-.13c-.12,0-.16.34-.23.52a1.64,1.64,0,0,0,.61.21C985.35,516,985.48,515.79,985.62,515.68Z" transform="translate(-924 -504.32)"/><path class="cls-2" d="M992.35,563l-1.25-2.41,2.23-.83Zm-.05-2.81c-.25.3-.49.47-.51.65s.29.39.45.39a.58.58,0,0,0,.45-.38C992.72,560.65,992.5,560.45,992.3,560.14Z" transform="translate(-924 -504.32)"/><path class="cls-2" d="M927.19,524.58l1.63.91-2.76.53-.14-2.29.14-.06,1.15.92c-.11,0-.28,0-.32.1a5.8,5.8,0,0,0-.27.69c.18.06.49.23.53.18a1.47,1.47,0,0,0,.25-.65C927.42,524.81,927.27,524.69,927.19,524.58Z" transform="translate(-924 -504.32)"/><path class="cls-2" d="M992.52,555.78l.88,2-2.22.54-.11-.15Zm-.19,2.12c.2-.27.43-.45.42-.6s-.29-.46-.39-.44a.83.83,0,0,0-.51.44C991.82,557.4,992.09,557.62,992.33,557.9Z" transform="translate(-924 -504.32)"/><path class="cls-2" d="M980.06,510.49c.38.31.34.59,0,.85l-.29.2a1.67,1.67,0,0,1-2.41-.33.45.45,0,0,1-.07-.36,1.72,1.72,0,0,1,.25-.46c.88-1.29,1.76-1.25,2.59.11a2.55,2.55,0,0,1-.46-.25,1.19,1.19,0,0,0-1.66,0c-.3.2-.35.38-.15.68.64.94,1.38,1,2,0A2.6,2.6,0,0,0,980.06,510.49Z" transform="translate(-924 -504.32)"/><path class="cls-1" d="M980.07,569.47h.39c.29,0,.72-.17.76.31s-.4.39-.7.42l-.59,0a7.06,7.06,0,0,1-.1,1c-.05.19-.24.34-.37.5a2,2,0,0,1-.34-.57,3.81,3.81,0,0,1,0-.83c-.38-.12-1,.36-1.07-.27s.69-.3.91-.59l.52-1Z" transform="translate(-924 -504.32)"/><path class="cls-1" d="M927.68,548.73a3,3,0,0,1-1.64-1.85c-.06-.18.09-.43.14-.65.17.11.42.19.5.35.55,1.06.7,1.24,1.37,1.45q-.06-.9-.12-1.77c0-.3,0-.63.37-.6.13,0,.31.34.35.55.09.52.1,1,.16,1.66a2.28,2.28,0,0,0,.9-1.44c0-.17,0-.39.13-.52a.65.65,0,0,1,.46-.24c.07,0,.25.29.22.39-.21.64-.45,1.27-.7,1.9a2.8,2.8,0,0,1-.24.36,2.84,2.84,0,0,1,1.82,2.3c0,.16-.12.36-.18.55-.17-.12-.41-.2-.5-.36-.21-.36-.3-.79-.51-1.15a1.12,1.12,0,0,0-1.23-.61c.12.61.25,1.21.33,1.81,0,.2,0,.56-.18.62-.37.15-.47-.19-.53-.46-.12-.51-.21-1-.36-1.7l-.86,1.07c-.1.12-.13.32-.25.4a2.53,2.53,0,0,1-.55.18c0-.19-.12-.44,0-.57C926.88,549.85,927.27,549.32,927.68,548.73Z" transform="translate(-924 -504.32)"/><path class="cls-1" d="M979.45,533.37c.81.41,1.72.86,2.61,1.34a.47.47,0,0,1,.06.45c-.59.8-1.19,1.59-1.82,2.35a.55.55,0,0,1-.53.06c-.85-.52-1.68-1.07-2.49-1.64a.57.57,0,0,1-.13-.5,4.38,4.38,0,0,1,1.87-2A2.28,2.28,0,0,1,979.45,533.37Zm2.09,1.73c-.74-.35-1.31-.63-1.89-.88a.67.67,0,0,0-.5,0,8.11,8.11,0,0,0-1.12,1,.62.62,0,0,0,.09.57c.61.4,1.25.75,1.88,1.12Z" transform="translate(-924 -504.32)"/><path class="cls-1" d="M981.34,552.67c-.23.19-.43.48-.69.53-.42.07-.56-.31-.58-.66a.5.5,0,0,1,.59-.57c.24,0,.45.28.68.43Z" transform="translate(-924 -504.32)"/><path class="cls-1" d="M981.16,558.33c-.39.34-.59.66-.85.71s-.56-.3-.59-.66a.5.5,0,0,1,.57-.59C980.53,557.81,980.75,558.06,981.16,558.33Z" transform="translate(-924 -504.32)"/><path class="cls-1" d="M961.28,546a2.56,2.56,0,0,1-3.27,1.26,6.88,6.88,0,0,1-1.32-.81c-.3-.23-.29-.52.13-.66a14.75,14.75,0,0,1,1.7-.57C959.57,545,960.36,545.68,961.28,546Zm-.86.15c-1.32-.79-2.35-.77-3.25,0C958.19,547.41,959.49,547.43,960.42,546.12Z" transform="translate(-924 -504.32)"/><path class="cls-1" d="M937.22,511.55c.41-.74.86-1.58,1.35-2.4,0-.08.4-.09.51,0,.69.53,1.37,1.08,2,1.67a.71.71,0,0,1,.06.68c-.47.73-1,1.44-1.52,2.13a.58.58,0,0,1-.55.16,4,4,0,0,1-1.76-1.81A1.71,1.71,0,0,1,937.22,511.55Zm1.72-1.83c-.24.39-.43.69-.6,1a1.44,1.44,0,0,0,.51,2.22.6.6,0,0,0,.57,0c.43-.54.81-1.12,1.24-1.73Z" transform="translate(-924 -504.32)"/><path class="cls-1" d="M939.17,555.33c-.28.23-.49.5-.6.47a.74.74,0,0,1-.42-.49c0-.12.26-.39.42-.41S938.89,555.12,939.17,555.33Z" transform="translate(-924 -504.32)"/><path class="cls-1" d="M943.5,554.75c.21.35.41.54.39.7s-.24.34-.38.5c-.15-.17-.39-.31-.42-.5S943.28,555.1,943.5,554.75Z" transform="translate(-924 -504.32)"/><path class="cls-1" d="M970.13,565c-.34-.37-.63-.56-.72-.82s.3-.67.73-.66a.55.55,0,0,1,.59.66C970.7,564.39,970.42,564.6,970.13,565Z" transform="translate(-924 -504.32)"/><path class="cls-1" d="M962.23,509.26c-.34.2-.52.4-.68.39s-.34-.23-.51-.36c.17-.16.31-.41.5-.45S961.88,509,962.23,509.26Z" transform="translate(-924 -504.32)"/><path class="cls-1" d="M972.74,545.59c-.36.19-.56.38-.72.35s-.32-.26-.48-.4c.18-.15.34-.38.54-.41S972.41,545.34,972.74,545.59Z" transform="translate(-924 -504.32)"/><path class="cls-1" d="M972.69,546.85c-.34.23-.52.44-.68.43s-.34-.23-.51-.36c.16-.16.3-.41.48-.45S972.33,546.65,972.69,546.85Z" transform="translate(-924 -504.32)"/><path class="cls-1" d="M972.81,548.32c-.17.1-.36.3-.52.29s-.34-.24-.51-.37c.17-.15.31-.39.51-.44s.34.18.51.29Z" transform="translate(-924 -504.32)"/><path class="cls-1" d="M973.23,542.37c-.33.23-.51.44-.67.43s-.35-.24-.52-.37c.16-.16.3-.41.5-.46S972.88,542.16,973.23,542.37Z" transform="translate(-924 -504.32)"/><path class="cls-1" d="M935.3,528.29a.88.88,0,0,1-1-.89c0-.51.67-1.92.93-1.93.76-.05,1.88.75,1.9,1.36S936.22,528.28,935.3,528.29Zm.3-2.26-.26.09-.39,1.43c.28,0,.6.14.81,0a4.13,4.13,0,0,0,.81-.71Z" transform="translate(-924 -504.32)"/><path class="cls-1" d="M950,546.56c0-.08-.08-.17-.06-.23a1.64,1.64,0,0,1,.32-.6.52.52,0,0,1,.49.11.78.78,0,0,1,0,.65c-.09.14-.39.14-.6.18-.05,0-.13-.08-.19-.13Z" transform="translate(-924 -504.32)"/><path class="cls-1" d="M945.55,546.36l-.71.57c-.16-.2-.41-.38-.43-.6s.28-.42.46-.44S945.23,546.13,945.55,546.36Z" transform="translate(-924 -504.32)"/><path class="cls-1" d="M944.89,549c-.12-.22-.35-.44-.34-.64s.3-.34.47-.5c.15.16.43.32.44.5s-.21.42-.33.64Z" transform="translate(-924 -504.32)"/><path class="cls-1" d="M929.08,537.7c.19.31.41.51.38.65a.44.44,0,0,1-.88-.07C928.58,538.13,928.83,538,929.08,537.7Z" transform="translate(-924 -504.32)"/><path class="cls-1" d="M929.71,540.35c-.18.1-.38.3-.53.27s-.32-.26-.48-.4c.16-.14.32-.38.5-.4s.34.2.51.31Z" transform="translate(-924 -504.32)"/><path class="cls-1" d="M928.51,536.31c.1-.06.19-.18.29-.17a4.07,4.07,0,0,1,.67.11l-.12.57a4.56,4.56,0,0,1-.72-.21c-.07,0-.07-.21-.1-.31Z" transform="translate(-924 -504.32)"/><path class="cls-1" d="M989.75,509.7c-.25-.28-.54-.48-.5-.59a.75.75,0,0,1,.47-.45c.12,0,.4.25.42.41S989.94,509.4,989.75,509.7Z" transform="translate(-924 -504.32)"/><path class="cls-1" d="M988.31,509c-.35.19-.55.39-.71.37s-.32-.27-.48-.41c.18-.15.34-.39.53-.42S988,508.72,988.31,509Z" transform="translate(-924 -504.32)"/><path class="cls-1" d="M951,510.46c-.33.22-.52.42-.68.41s-.34-.24-.51-.37c.17-.16.31-.41.5-.45S950.64,510.24,951,510.46Z" transform="translate(-924 -504.32)"/><path class="cls-1" d="M949.32,510.57c-.26-.31-.5-.48-.51-.67s.29-.37.45-.38a.6.6,0,0,1,.44.39C949.73,510.06,949.52,510.25,949.32,510.57Z" transform="translate(-924 -504.32)"/><path class="cls-1" d="M944.74,563.28c-.38.26-.65.57-.81.52s-.48-.38-.71-.59c.23-.21.44-.57.69-.6S944.36,563,944.74,563.28Z" transform="translate(-924 -504.32)"/><path class="cls-1" d="M967.43,519.54l.88.8c.58.52.56.74-.12,1.15l-.44.25c.06.09.09.16.13.21.74.94.71,1-.23,1.71-.72.53-1.39.8-2.19.21-.29-.21-.64-.33-.94-.52a.45.45,0,0,1-.06-.79c.26-.24.54-.46.87-.75l-.91-.79c-.53-.46-.52-.69.09-1.09l.48-.28a3.34,3.34,0,0,0-.25-.34c-.63-.77-.59-.84.19-1.5a1.9,1.9,0,0,1,2.56-.27c1,.6,1.72.86.22,1.81ZM966,522.3c-.46.38-.44.7.12,1,.38.41.83.27,1.44-.44-.92-1.23-.92-1.23.07-1.94-.3-.4-.77-.78-.82-1.21s.41-.8.65-1.2c-1.17-.86-1.36-.85-2.25.08.93,1.28.93,1.28,0,2l.61.65A.86.86,0,0,1,966,522.3Z" transform="translate(-924 -504.32)"/><path class="cls-1" d="M948.84,535.88c-.17-.23-.46-.45-.49-.7-.06-.43.33-.55.68-.56a.49.49,0,0,1,.55.6c-.05.24-.3.45-.46.67Z" transform="translate(-924 -504.32)"/><path class="cls-1" d="M936.86,562.63c-.25.2-.46.35-.65.52a.57.57,0,0,1-1-.17,3,3,0,0,1-.32-.64,1.4,1.4,0,0,1,.08-.52,1.91,1.91,0,0,1,.51.17,2.36,2.36,0,0,1,.39.54c.87-1,1.53-.41,2.16.31a2.06,2.06,0,0,1,.25-.22l.74-.29a2.23,2.23,0,0,1-.17.75c-.55.85-.85.85-1.53.08Z" transform="translate(-924 -504.32)"/><path class="cls-1" d="M936.09,564a1.07,1.07,0,0,1,.08-.27,1.69,1.69,0,0,1,.48-.51c.1,0,.42.18.45.33s0,.54-.15.61-.45,0-.68-.06a1,1,0,0,1-.2-.11Z" transform="translate(-924 -504.32)"/><path class="cls-1" d="M993,517.9c-.31.29-.5.6-.68.6s-.37-.31-.56-.48c.17-.18.32-.44.53-.5S992.69,517.71,993,517.9Z" transform="translate(-924 -504.32)"/><path class="cls-1" d="M985.62,515.68c-.14.11-.27.31-.41.31a1.64,1.64,0,0,1-.61-.21c.07-.18.11-.48.23-.52a1,1,0,0,1,.61.13c.08,0,.11.2.17.3Z" transform="translate(-924 -504.32)"/><path class="cls-1" d="M992.3,560.14c.2.31.42.51.39.66a.58.58,0,0,1-.45.38c-.16,0-.45-.26-.45-.39S992.05,560.44,992.3,560.14Z" transform="translate(-924 -504.32)"/><path class="cls-1" d="M927.19,524.58c.08.11.23.23.21.33a1.47,1.47,0,0,1-.25.65c0,.05-.35-.12-.53-.18a5.8,5.8,0,0,1,.27-.69c0-.07.21-.06.32-.1Z" transform="translate(-924 -504.32)"/><path class="cls-1" d="M992.33,557.9c-.24-.28-.51-.5-.48-.6a.83.83,0,0,1,.51-.44c.1,0,.37.27.39.44S992.53,557.63,992.33,557.9Z" transform="translate(-924 -504.32)"/><path class="cls-1" d="M980.06,510.49a2.6,2.6,0,0,1-.24.47c-.63,1-1.37.93-2,0-.2-.3-.15-.48.15-.68a1.19,1.19,0,0,1,1.66,0,2.55,2.55,0,0,0,.46.25Zm-1-.27-.54,0-.52.52c.3.24.58.64.9.67s.71-.39.85-.84a3.13,3.13,0,0,0-.41-.29A1.29,1.29,0,0,0,979,510.22Z" transform="translate(-924 -504.32)"/><path class="cls-2" d="M981.54,535.1,980,536.87c-.63-.37-1.27-.72-1.88-1.12a.62.62,0,0,1-.09-.57,8.11,8.11,0,0,1,1.12-1,.67.67,0,0,1,.5,0C980.23,534.47,980.8,534.75,981.54,535.1Zm-1.31.53,0-.22c-.17-.12-.36-.36-.5-.33s-.36.26-.54.41c.16.14.31.37.49.4S980.05,535.72,980.23,535.63Z" transform="translate(-924 -504.32)"/><path class="cls-2" d="M960.42,546.12c-.93,1.31-2.23,1.29-3.25,0C958.07,545.35,959.1,545.33,960.42,546.12Zm-.82.13c-.32-.25-.51-.49-.65-.47s-.36.26-.53.41c.15.14.29.37.47.39S959.25,546.43,959.6,546.25Z" transform="translate(-924 -504.32)"/><path class="cls-2" d="M938.94,509.72l1.72,1.45c-.43.61-.81,1.19-1.24,1.73a.6.6,0,0,1-.57,0,1.44,1.44,0,0,1-.51-2.22C938.51,510.41,938.7,510.11,938.94,509.72Zm.2,2.2.22,0c.09-.18.25-.38.23-.56a.54.54,0,0,0-.39-.36.57.57,0,0,0-.37.41C938.83,511.56,939,511.74,939.14,511.92Z" transform="translate(-924 -504.32)"/><path class="cls-2" d="M935.6,526l1,.84a4.13,4.13,0,0,1-.81.71c-.21.11-.53,0-.81,0l.39-1.43Z" transform="translate(-924 -504.32)"/><path class="cls-2" d="M966,522.3a.86.86,0,0,0-.23-1.12l-.61-.65c1-.71,1-.71,0-2,.89-.93,1.08-.94,2.25-.08-.24.4-.69.83-.65,1.2s.52.81.82,1.21c-1,.71-1,.71-.07,1.94-.61.71-1.06.85-1.44.44A7.47,7.47,0,0,0,967,523c.05,0,0-.44,0-.47a8,8,0,0,0-1-.21Zm.35-.83c.32-.32.65-.5.69-.73.08-.42-.29-.55-.66-.57s-.64.19-.59.56S966.06,521.14,966.32,521.47Zm0-2.08c.3-.34.61-.53.65-.76.07-.44-.34-.53-.67-.55a.49.49,0,0,0-.57.58C965.76,518.88,966,519.06,966.32,519.39Z" transform="translate(-924 -504.32)"/><path class="cls-1" d="M966,522.3l.06,0a8,8,0,0,1,1,.21c.07,0,.09.45,0,.47a7.47,7.47,0,0,1-.95.29C965.53,523,965.51,522.68,966,522.3Z" transform="translate(-924 -504.32)"/><path class="cls-2" d="M979,510.22a1.29,1.29,0,0,1,.28.08,3.13,3.13,0,0,1,.41.29c-.14.45-.4.88-.85.84s-.6-.43-.9-.67l.52-.52c-.31.48-.27.78.15.85.17,0,.51-.08.51-.13A3.26,3.26,0,0,0,979,510.22Z" transform="translate(-924 -504.32)"/><path class="cls-1" d="M979,510.22a3.26,3.26,0,0,1,.12.74c0,.05-.34.16-.51.13-.42-.07-.46-.37-.15-.85Z" transform="translate(-924 -504.32)"/><path class="cls-1" d="M980.23,535.63c-.18.09-.37.28-.53.26s-.33-.26-.49-.4c.18-.15.34-.38.54-.41s.33.21.5.33Z" transform="translate(-924 -504.32)"/><path class="cls-1" d="M959.6,546.25c-.35.18-.55.36-.71.33s-.32-.25-.47-.39c.17-.15.34-.38.53-.41S959.28,546,959.6,546.25Z" transform="translate(-924 -504.32)"/><path class="cls-1" d="M939.14,511.92c-.11-.18-.31-.36-.31-.53a.57.57,0,0,1,.37-.41.54.54,0,0,1,.39.36c0,.18-.14.38-.23.56Z" transform="translate(-924 -504.32)"/><path class="cls-1" d="M966.32,521.47c-.26-.33-.52-.52-.56-.74s.2-.58.59-.56.74.15.66.57C967,521,966.64,521.15,966.32,521.47Z" transform="translate(-924 -504.32)"/><path class="cls-1" d="M966.32,519.39c-.28-.33-.56-.51-.59-.73a.49.49,0,0,1,.57-.58c.33,0,.74.11.67.55C966.93,518.86,966.62,519.05,966.32,519.39Z" transform="translate(-924 -504.32)"/></svg>