<?xml version="1.0" standalone="no"?>
<!DOCTYPE svg PUBLIC "-//W3C//DTD SVG 20010904//EN"
 "http://www.w3.org/TR/2001/REC-SVG-20010904/DTD/svg10.dtd">
<svg version="1.0" xmlns="http://www.w3.org/2000/svg"
 width="32.000000pt" height="32.000000pt" viewBox="0 0 128.000000 128.000000"
 preserveAspectRatio="xMidYMid meet">

<g transform="translate(0.000000,128.000000) scale(0.100000,-0.100000)"
fill="#ff0000" stroke="#ffffff">
<path d="M380 1034 c-135 -80 -246 -147 -248 -148 -2 -2 449 -275 500 -303 8
-4 521 298 516 303 -17 15 -502 294 -511 294 -6 -1 -122 -66 -257 -146z"/>
<path d="M393 562 c-35 -20 -63 -39 -63 -42 0 -7 296 -180 309 -180 13 0 310
172 311 180 0 7 -130 80 -142 80 -6 0 -44 -20 -85 -45 -40 -25 -78 -45 -83
-45 -5 0 -44 20 -86 45 -41 25 -81 45 -87 45 -7 -1 -40 -18 -74 -38z"/>
<path d="M196 438 c-65 -38 -68 -42 -50 -55 10 -8 126 -77 256 -154 l238 -140
247 147 c137 80 252 149 256 154 4 4 -23 26 -62 49 l-70 41 -186 -110 -187
-110 -185 110 c-101 61 -185 110 -186 110 -1 -1 -33 -19 -71 -42z"/>
</g>
</svg>
